# Blender 3.4.1
# www.blender.org
mtllib Bowlder2.mtl
o Bowlder2
v -0.681085 0.376638 0.842676
v -0.596775 1.611930 0.772028
v -0.712590 0.344087 -0.858897
v -0.602305 1.608565 -0.720667
v 0.479931 0.263862 0.670464
v 0.432590 1.018396 0.580402
v 0.497781 0.239124 -0.693956
v 0.450342 0.987136 -0.567178
v 0.179656 0.278631 -0.806329
v -0.245809 0.343426 -0.913919
v -0.205149 1.467443 -0.777750
v 0.154528 1.073511 -0.623608
v -0.264173 0.423539 0.813764
v 0.167200 0.307027 0.764966
v 0.153269 1.106001 0.658434
v -0.204489 1.470898 0.824074
v -0.641206 0.774821 0.816460
v -0.641206 1.160995 0.816460
v -0.687172 1.113707 -0.814218
v -0.772014 0.639669 -0.917280
v 0.588172 0.731789 -0.595773
v 0.634886 0.482190 -0.616359
v 0.638121 0.809193 0.577524
v 0.562102 0.553407 0.570329
v 0.154137 0.924044 0.814295
v 0.150366 0.696447 0.803782
v -0.219805 1.079066 0.909657
v -0.239394 0.803246 0.855047
v -0.225288 1.043671 -0.944622
v -0.254997 0.647526 -1.060574
v 0.166097 0.881729 -0.833274
v 0.184400 0.591096 -0.935032
v -0.818742 0.300624 -0.346306
v -0.818742 0.300624 0.356925
v -0.704253 1.671555 0.331132
v -0.704253 1.671458 -0.275061
v 0.515862 0.110274 0.363971
v 0.515862 0.110274 -0.364453
v 0.475241 1.155347 -0.199936
v 0.475241 1.155488 0.234381
v 0.155990 1.359313 -0.211647
v 0.155990 1.359499 0.253197
v -0.209193 1.813130 -0.262165
v -0.209193 1.814206 0.319605
v -0.395822 0.187129 -0.319676
v -0.276167 0.212580 0.430056
v 0.156382 0.133717 -0.382946
v 0.179417 0.126195 0.404195
v 0.882905 0.490175 -0.256912
v 0.809808 0.505634 0.327620
v 0.804607 0.803317 -0.221575
v 0.769092 0.859901 0.241709
v -0.955322 0.775672 0.361488
v -0.917629 0.744710 -0.515655
v -0.871792 1.368639 0.346413
v -0.917846 1.242321 -0.305012
vn -0.8689 0.3300 -0.3689
vn 0.4649 0.5323 -0.7075
vn 0.6641 0.6601 0.3509
vn -0.1307 0.1602 0.9784
vn 0.0118 -0.8936 0.4487
vn -0.0197 0.9189 0.3940
vn 0.4504 0.7807 0.4331
vn 0.7473 0.5563 0.3633
vn -0.0554 -0.9453 0.3215
vn -0.1611 -0.8734 0.4596
vn 0.4399 0.5188 0.7330
vn 0.5127 0.3220 0.7959
vn -0.1371 0.2846 -0.9488
vn 0.5646 0.4249 -0.7075
vn 0.1860 -0.3995 -0.8977
vn 0.3306 0.2802 -0.9012
vn -0.1837 -0.3368 -0.9235
vn -0.2438 0.2668 -0.9324
vn 0.0924 -0.1041 0.9903
vn 0.1425 -0.1335 0.9807
vn 0.4208 0.0413 0.9062
vn 0.4384 -0.1051 0.8926
vn -0.0101 -0.0185 0.9998
vn -0.1624 -0.0763 0.9838
vn 0.7856 -0.3267 0.5255
vn 0.8364 0.0223 0.5476
vn 0.4508 -0.1952 -0.8710
vn 0.5718 0.2461 -0.7826
vn -0.9321 -0.2729 -0.2383
vn -0.8828 0.2122 -0.4191
vn -0.8509 0.0806 0.5192
vn -0.9971 0.0766 -0.0024
vn -0.8951 -0.0883 0.4369
vn -0.9678 -0.2512 -0.0182
vn 0.8100 0.2334 -0.5381
vn 0.9794 0.1814 0.0890
vn 0.7697 -0.5081 -0.3864
vn 0.7578 -0.6506 0.0498
vn -0.1012 -0.9491 -0.2982
vn -0.1353 -0.9905 0.0241
vn -0.1310 -0.9699 -0.2054
vn -0.2076 -0.9776 0.0342
vn 0.7479 0.5497 -0.3721
vn 0.7794 0.6266 -0.0008
vn 0.4192 0.7782 -0.4676
vn 0.5384 0.8427 -0.0003
vn -0.0200 0.9193 -0.3930
vn -0.2760 0.9612 -0.0009
vn -0.0213 -0.9395 -0.3418
vn -0.0566 -0.9984 -0.0041
vn 0.7041 0.5759 -0.4154
vn 0.7203 0.6935 -0.0153
vn -0.8715 0.2771 0.4047
vn -0.8868 0.4620 -0.0140
vt 0.000096 0.458921
vt 0.054543 0.859333
vt 0.759219 0.000096
vt 0.225946 0.999903
vt 0.643974 0.999904
vt 0.930622 0.140668
vt 0.583050 0.214906
vt 0.174475 0.232615
vt 0.754453 0.355477
vt 0.838490 0.765143
vt 0.194654 0.643763
vt 0.405256 0.822840
vt 0.401867 0.394090
vt 0.615489 0.563338
vt 0.476908 0.344328
vt 0.314469 0.338924
vt 0.524327 0.286508
vt 0.253274 0.289636
vt 0.695730 0.427080
vt 0.762580 0.690777
vt 0.648312 0.484898
vt 0.696795 0.636989
vt 0.068021 0.520464
vt 0.113266 0.787730
vt 0.125652 0.568802
vt 0.160684 0.729911
vt 0.492656 0.886391
vt 0.332087 0.870482
vt 0.558279 0.940092
vt 0.284669 0.928301
vt 0.108900 0.903913
vt 0.813576 0.044676
vt 0.155342 0.942001
vt 0.860018 0.082764
vt 0.683849 0.297573
vt 0.637407 0.259486
vt 0.512828 0.506105
vt 0.462547 0.472699
vt 0.331511 0.727192
vt 0.279483 0.695914
vt 0.261484 0.812579
vt 0.215041 0.774491
vt 0.214065 0.870398
vt 0.167623 0.832310
vt 0.625126 0.369176
vt 0.578684 0.331088
vt 0.577708 0.426995
vt 0.531266 0.388907
vt 0.641773 0.143303
vt 0.109158 0.303367
vt 0.700496 0.071700
vt 0.048924 0.377768
vt 0.715749 0.930016
vt 0.871899 0.212271
vt 0.782063 0.849206
vt 0.813176 0.283874
vt 0.224206 0.548270
vt 0.311216 0.442176
vt 0.565764 0.679781
vt 0.507041 0.751384
vt 0.631109 0.733371
vt 0.572386 0.804974
vt 0.688927 0.780789
vt 0.630205 0.852392
vt 0.170461 0.355585
vt 0.114839 0.458578
vt 0.253626 0.400499
vt 0.172658 0.505996
vt 0.402515 0.545898
vt 0.329139 0.635368
vt 0.448957 0.583986
vt 0.402829 0.665918
vt 0.764076 0.123843
vt 0.679322 0.208377
vt 0.801295 0.154367
vt 0.742572 0.225970
s 0
usemtl Material.009
f 56/76/1 36/56/1 4/9/1 19/35/1
f 31/47/2 12/21/2 8/14/2 21/37/2
f 52/72/3 40/60/3 6/12/3 23/39/3
f 27/43/4 16/30/4 2/4/4 18/33/4
f 48/68/5 37/57/5 5/11/5 14/25/5
f 44/64/6 35/53/6 2/5/6 16/29/6
f 40/60/7 42/62/7 15/27/7 6/12/7
f 42/62/8 44/64/8 16/29/8 15/27/8
f 34/52/9 46/66/9 13/23/9 1/1/9
f 46/66/10 48/68/10 14/25/10 13/23/10
f 23/39/11 6/12/11 15/28/11 25/41/11
f 25/41/12 15/28/12 16/30/12 27/43/12
f 19/35/13 4/9/13 11/19/13 29/45/13
f 29/45/14 11/19/14 12/21/14 31/47/14
f 10/17/15 30/46/15 32/48/15 9/15/15
f 30/46/16 29/45/16 31/47/16 32/48/16
f 3/7/17 20/36/17 30/46/17 10/17/17
f 20/36/18 19/35/18 29/45/18 30/46/18
f 14/26/19 26/42/19 28/44/19 13/24/19
f 26/42/20 25/41/20 27/43/20 28/44/20
f 5/11/21 24/40/21 26/42/21 14/26/21
f 24/40/22 23/39/22 25/41/22 26/42/22
f 13/24/23 28/44/23 17/31/23 1/2/23
f 28/44/24 27/43/24 18/33/24 17/31/24
f 37/57/25 50/70/25 24/40/25 5/11/25
f 50/70/26 52/72/26 23/39/26 24/40/26
f 9/15/27 32/48/27 22/38/27 7/13/27
f 32/48/28 31/47/28 21/37/28 22/38/28
f 33/49/29 54/74/29 20/36/29 3/7/29
f 54/74/30 56/76/30 19/35/30 20/36/30
f 17/32/31 18/34/31 55/75/31 53/73/31
f 53/73/32 55/75/32 56/76/32 54/74/32
f 1/3/33 17/32/33 53/73/33 34/51/33
f 34/51/34 53/73/34 54/74/34 33/49/34
f 22/38/35 21/37/35 51/71/35 49/69/35
f 49/69/36 51/71/36 52/72/36 50/70/36
f 7/13/37 22/38/37 49/69/37 38/58/37
f 38/58/38 49/69/38 50/70/38 37/57/38
f 10/18/39 9/16/39 47/67/39 45/65/39
f 45/65/40 47/67/40 48/68/40 46/66/40
f 3/8/41 10/18/41 45/65/41 33/50/41
f 33/50/42 45/65/42 46/66/42 34/52/42
f 12/22/43 11/20/43 43/63/43 41/61/43
f 41/61/44 43/63/44 44/64/44 42/62/44
f 8/14/45 12/22/45 41/61/45 39/59/45
f 39/59/46 41/61/46 42/62/46 40/60/46
f 11/20/47 4/10/47 36/55/47 43/63/47
f 43/63/48 36/55/48 35/53/48 44/64/48
f 9/16/49 7/13/49 38/58/49 47/67/49
f 47/67/50 38/58/50 37/57/50 48/68/50
f 21/37/51 8/14/51 39/59/51 51/71/51
f 51/71/52 39/59/52 40/60/52 52/72/52
f 18/34/53 2/6/53 35/54/53 55/75/53
f 55/75/54 35/54/54 36/56/54 56/76/54
