# Blender 3.4.1
# www.blender.org
mtllib MetalTing.mtl
o MetalTing
v -2.419650 0.000000 1.411795
v 2.419650 0.000000 1.411795
v -2.419650 0.000000 -1.411795
v 2.419650 0.000000 -1.411795
v -2.150800 0.121997 1.411795
v -1.881950 0.000000 1.411795
v -1.613100 0.121997 1.411795
v -1.344250 0.000000 1.411795
v -1.075400 0.121997 1.411795
v -0.806550 0.000000 1.411795
v -0.537700 0.121997 1.411795
v -0.268850 0.000000 1.411795
v -0.000000 0.121997 1.411795
v 0.268850 0.000000 1.411795
v 0.537700 0.121997 1.411795
v 0.806550 0.000000 1.411795
v 1.075400 0.121997 1.411795
v 1.344250 0.000000 1.411795
v 1.613100 0.121997 1.411795
v 1.881949 0.000000 1.411795
v 2.150800 0.121997 1.411795
v 2.150800 0.121997 -1.411795
v 1.881950 0.000000 -1.411795
v 1.613100 0.121997 -1.411795
v 1.344250 0.000000 -1.411795
v 1.075400 0.121997 -1.411795
v 0.806550 0.000000 -1.411795
v 0.537700 0.121997 -1.411795
v 0.268850 0.000000 -1.411795
v 0.000000 0.121997 -1.411795
v -0.268850 0.000000 -1.411795
v -0.537700 0.121997 -1.411795
v -0.806550 0.000000 -1.411795
v -1.075400 0.121997 -1.411795
v -1.344250 0.000000 -1.411795
v -1.613100 0.121997 -1.411795
v -1.881949 0.000000 -1.411795
v -2.150800 0.121997 -1.411795
v -2.403121 -0.036425 1.411795
v 2.403121 -0.036425 1.411795
v -2.403121 -0.036425 -1.411795
v 2.403121 -0.036425 -1.411795
v -2.150800 0.081997 1.411795
v -1.881950 -0.040000 1.411795
v -1.613100 0.081997 1.411795
v -1.344250 -0.040000 1.411795
v -1.075400 0.081997 1.411795
v -0.806550 -0.040000 1.411795
v -0.537700 0.081997 1.411795
v -0.268850 -0.040000 1.411795
v -0.000000 0.081997 1.411795
v 0.268850 -0.040000 1.411795
v 0.537700 0.081997 1.411795
v 0.806550 -0.040000 1.411795
v 1.075400 0.081997 1.411795
v 1.344250 -0.040000 1.411795
v 1.613100 0.081997 1.411795
v 1.881949 -0.040000 1.411795
v 2.150800 0.081997 1.411795
v 2.150800 0.081997 -1.411795
v 1.881950 -0.040000 -1.411795
v 1.613100 0.081997 -1.411795
v 1.344250 -0.040000 -1.411795
v 1.075400 0.081997 -1.411795
v 0.806550 -0.040000 -1.411795
v 0.537700 0.081997 -1.411795
v 0.268850 -0.040000 -1.411795
v 0.000000 0.081997 -1.411795
v -0.268850 -0.040000 -1.411795
v -0.537700 0.081997 -1.411795
v -0.806550 -0.040000 -1.411795
v -1.075400 0.081997 -1.411795
v -1.344250 -0.040000 -1.411795
v -1.613100 0.081997 -1.411795
v -1.881949 -0.040000 -1.411795
v -2.150800 0.081997 -1.411795
vn 0.4132 0.9106 -0.0000
vn -0.4132 0.9106 -0.0000
vn -0.4249 -0.9053 -0.0000
vn 0.4249 -0.9053 -0.0000
vn -0.4132 -0.9106 -0.0000
vn 0.4132 -0.9106 -0.0000
vn -0.9106 -0.4132 -0.0000
vn -0.0000 -0.0000 1.0000
vn 0.9106 -0.4132 -0.0000
vn -0.0000 -0.0000 -1.0000
vt 0.680037 0.000134
vt 0.060084 0.000134
vt 0.680037 0.601577
vt 0.039211 0.587657
vt 0.360474 0.000134
vt 0.330843 0.039768
vt 0.360474 0.601577
vt 0.320664 0.577685
vt 0.680037 0.033547
vt 0.032195 0.020953
vt 0.680037 0.066961
vt 0.034229 0.060537
vt 0.680037 0.100374
vt 0.011958 0.092633
vt 0.680037 0.133788
vt 0.022245 0.130428
vt 0.680037 0.167201
vt 0.003312 0.164634
vt 0.680037 0.200615
vt 0.016962 0.201311
vt 0.680037 0.234028
vt 0.000134 0.236411
vt 0.680037 0.267442
vt 0.015465 0.271600
vt 0.680037 0.300855
vt 0.000634 0.303362
vt 0.680037 0.334269
vt 0.014505 0.334853
vt 0.680037 0.367682
vt 0.000326 0.365654
vt 0.680037 0.401096
vt 0.014168 0.396506
vt 0.680037 0.434510
vt 0.000452 0.427428
vt 0.680037 0.467923
vt 0.014840 0.458101
vt 0.680037 0.501337
vt 0.002402 0.490433
vt 0.680037 0.534750
vt 0.019389 0.521513
vt 0.680037 0.568164
vt 0.012240 0.561578
vt 0.360474 0.568164
vt 0.343200 0.556175
vt 0.360474 0.534750
vt 0.337639 0.522198
vt 0.360474 0.501337
vt 0.354502 0.492793
vt 0.360474 0.467923
vt 0.342931 0.460836
vt 0.360474 0.434510
vt 0.357854 0.430569
vt 0.360474 0.401096
vt 0.344757 0.399446
vt 0.360474 0.367682
vt 0.359135 0.368962
vt 0.360474 0.334269
vt 0.345620 0.338084
vt 0.360474 0.300855
vt 0.359815 0.307558
vt 0.360474 0.267442
vt 0.346180 0.276802
vt 0.360474 0.234028
vt 0.360207 0.246338
vt 0.360474 0.200615
vt 0.346514 0.215782
vt 0.360474 0.167201
vt 0.360207 0.185399
vt 0.360474 0.133788
vt 0.346320 0.155226
vt 0.360474 0.100374
vt 0.358916 0.124710
vt 0.360474 0.066961
vt 0.343954 0.095490
vt 0.360474 0.033547
vt 0.351709 0.063157
vt 0.680304 0.000134
vt 0.061434 0.004443
vt 0.680304 0.597841
vt 0.041203 0.582742
vt 0.999866 0.000134
vt 0.328707 0.043980
vt 0.999866 0.597841
vt 0.318907 0.573749
vt 0.680304 0.031679
vt 0.036867 0.022982
vt 0.680304 0.065093
vt 0.039176 0.061932
vt 0.680304 0.098506
vt 0.017193 0.093531
vt 0.680304 0.131920
vt 0.027411 0.131049
vt 0.680304 0.165333
vt 0.008603 0.165028
vt 0.680304 0.198747
vt 0.022187 0.201547
vt 0.680304 0.232160
vt 0.005372 0.236521
vt 0.680304 0.265574
vt 0.020421 0.271626
vt 0.680304 0.298987
vt 0.005338 0.303432
vt 0.680304 0.332401
vt 0.019122 0.334886
vt 0.680304 0.365814
vt 0.004915 0.365679
vt 0.680304 0.399228
vt 0.018735 0.396496
vt 0.680304 0.432642
vt 0.005041 0.427378
vt 0.680304 0.466055
vt 0.019423 0.457945
vt 0.680304 0.499469
vt 0.007143 0.490094
vt 0.680304 0.532882
vt 0.024277 0.520759
vt 0.680304 0.566296
vt 0.017382 0.560020
vt 0.999866 0.566296
vt 0.338909 0.554846
vt 0.999866 0.532882
vt 0.333231 0.521411
vt 0.999866 0.499468
vt 0.349912 0.492397
vt 0.999866 0.466055
vt 0.338399 0.460588
vt 0.999866 0.432641
vt 0.353280 0.430433
vt 0.999866 0.399228
vt 0.340202 0.399351
vt 0.999866 0.365814
vt 0.354568 0.368898
vt 0.999866 0.332401
vt 0.341061 0.338033
vt 0.999866 0.298987
vt 0.355255 0.307516
vt 0.999866 0.265574
vt 0.341632 0.276771
vt 0.999866 0.232160
vt 0.355666 0.246314
vt 0.999866 0.198747
vt 0.341996 0.215779
vt 0.999866 0.165333
vt 0.355698 0.185414
vt 0.999866 0.131920
vt 0.341865 0.155316
vt 0.999866 0.098506
vt 0.354454 0.124887
vt 0.999866 0.065093
vt 0.339639 0.095996
vt 0.999866 0.031679
vt 0.347397 0.064181
s 0
usemtl Material.010
f 21/41/1 2/3/1 4/7/1 22/43/1
f 1/1/2 5/9/2 38/75/2 3/5/2
f 5/9/1 6/11/1 37/73/1 38/75/1
f 6/11/2 7/13/2 36/71/2 37/73/2
f 7/13/1 8/15/1 35/69/1 36/71/1
f 8/15/2 9/17/2 34/67/2 35/69/2
f 9/17/1 10/19/1 33/65/1 34/67/1
f 10/19/2 11/21/2 32/63/2 33/65/2
f 11/21/1 12/23/1 31/61/1 32/63/1
f 12/23/2 13/25/2 30/59/2 31/61/2
f 13/25/1 14/27/1 29/57/1 30/59/1
f 14/27/2 15/29/2 28/55/2 29/57/2
f 15/29/1 16/31/1 27/53/1 28/55/1
f 16/31/2 17/33/2 26/51/2 27/53/2
f 17/33/1 18/35/1 25/49/1 26/51/1
f 18/35/2 19/37/2 24/47/2 25/49/2
f 19/37/1 20/39/1 23/45/1 24/47/1
f 20/39/2 21/41/2 22/43/2 23/45/2
f 59/117/3 60/119/3 42/83/3 40/79/3
f 39/77/4 41/81/4 76/151/4 43/85/4
f 43/85/5 76/151/5 75/149/5 44/87/5
f 44/87/6 75/149/6 74/147/6 45/89/6
f 45/89/5 74/147/5 73/145/5 46/91/5
f 46/91/6 73/145/6 72/143/6 47/93/6
f 47/93/5 72/143/5 71/141/5 48/95/5
f 48/95/6 71/141/6 70/139/6 49/97/6
f 49/97/5 70/139/5 69/137/5 50/99/5
f 50/99/6 69/137/6 68/135/6 51/101/6
f 51/101/5 68/135/5 67/133/5 52/103/5
f 52/103/6 67/133/6 66/131/6 53/105/6
f 53/105/5 66/131/5 65/129/5 54/107/5
f 54/107/6 65/129/6 64/127/6 55/109/6
f 55/109/5 64/127/5 63/125/5 56/111/5
f 56/111/6 63/125/6 62/123/6 57/113/6
f 57/113/5 62/123/5 61/121/5 58/115/5
f 58/115/6 61/121/6 60/119/6 59/117/6
f 1/2/7 3/6/7 41/82/7 39/78/7
f 2/4/8 21/42/8 59/118/8 40/80/8
f 4/8/9 2/4/9 40/80/9 42/84/9
f 3/6/10 38/76/10 76/152/10 41/82/10
f 5/10/8 1/2/8 39/78/8 43/86/8
f 6/12/8 5/10/8 43/86/8 44/88/8
f 7/14/8 6/12/8 44/88/8 45/90/8
f 8/16/8 7/14/8 45/90/8 46/92/8
f 9/18/8 8/16/8 46/92/8 47/94/8
f 10/20/8 9/18/8 47/94/8 48/96/8
f 11/22/8 10/20/8 48/96/8 49/98/8
f 12/24/8 11/22/8 49/98/8 50/100/8
f 13/26/8 12/24/8 50/100/8 51/102/8
f 14/28/8 13/26/8 51/102/8 52/104/8
f 15/30/8 14/28/8 52/104/8 53/106/8
f 16/32/8 15/30/8 53/106/8 54/108/8
f 17/34/8 16/32/8 54/108/8 55/110/8
f 18/36/8 17/34/8 55/110/8 56/112/8
f 19/38/8 18/36/8 56/112/8 57/114/8
f 20/40/8 19/38/8 57/114/8 58/116/8
f 21/42/8 20/40/8 58/116/8 59/118/8
f 22/44/10 4/8/10 42/84/10 60/120/10
f 23/46/10 22/44/10 60/120/10 61/122/10
f 24/48/10 23/46/10 61/122/10 62/124/10
f 25/50/10 24/48/10 62/124/10 63/126/10
f 26/52/10 25/50/10 63/126/10 64/128/10
f 27/54/10 26/52/10 64/128/10 65/130/10
f 28/56/10 27/54/10 65/130/10 66/132/10
f 29/58/10 28/56/10 66/132/10 67/134/10
f 30/60/10 29/58/10 67/134/10 68/136/10
f 31/62/10 30/60/10 68/136/10 69/138/10
f 32/64/10 31/62/10 69/138/10 70/140/10
f 33/66/10 32/64/10 70/140/10 71/142/10
f 34/68/10 33/66/10 71/142/10 72/144/10
f 35/70/10 34/68/10 72/144/10 73/146/10
f 36/72/10 35/70/10 73/146/10 74/148/10
f 37/74/10 36/72/10 74/148/10 75/150/10
f 38/76/10 37/74/10 75/150/10 76/152/10
