# Blender 3.4.1
# www.blender.org
mtllib StairsL.mtl
o StairsL
v -0.034862 -1.532652 2.018639
v 0.034861 -1.532652 2.018639
v -0.034862 -1.308305 2.170775
v 0.034861 -1.308305 2.170775
v -0.034861 1.308305 -2.170775
v 0.034862 1.308305 -2.170775
v -0.034861 1.532652 -2.018639
v 0.034862 1.532652 -2.018639
v 0.040845 -1.328198 2.030351
v 0.040845 -1.254177 2.030351
v 0.040845 -1.328198 1.742574
v 0.040845 -1.254176 1.742574
v 1.719921 -1.328198 2.030351
v 1.719921 -1.254177 2.030351
v 1.719921 -1.328198 1.742574
v 1.719921 -1.254176 1.742574
v 0.040845 -1.117238 1.713797
v 0.040845 -1.043217 1.713796
v 0.040845 -1.117237 1.426020
v 0.040845 -1.043216 1.426020
v 1.719921 -1.117238 1.713796
v 1.719921 -1.043217 1.713796
v 1.719921 -1.117237 1.426020
v 1.719921 -1.043216 1.426020
v 0.040845 -0.906278 1.397242
v 0.040845 -0.832256 1.397242
v 0.040845 -0.906277 1.109466
v 0.040845 -0.832256 1.109466
v 1.719921 -0.906278 1.397242
v 1.719921 -0.832257 1.397242
v 1.719921 -0.906277 1.109466
v 1.719921 -0.832256 1.109466
v 0.040845 -0.695318 1.080688
v 0.040845 -0.621297 1.080688
v 0.040845 -0.695317 0.792911
v 0.040845 -0.621296 0.792912
v 1.719921 -0.695318 1.080688
v 1.719921 -0.621297 1.080688
v 1.719921 -0.695317 0.792911
v 1.719921 -0.621296 0.792911
v 0.040845 -0.484358 0.764134
v 0.040845 -0.410336 0.764134
v 0.040845 -0.484357 0.476357
v 0.040845 -0.410336 0.476357
v 1.719921 -0.484358 0.764134
v 1.719921 -0.410336 0.764134
v 1.719921 -0.484357 0.476357
v 1.719921 -0.410336 0.476357
v 0.040845 -0.273397 0.447579
v 0.040845 -0.199376 0.447579
v 0.040845 -0.273397 0.159803
v 0.040845 -0.199376 0.159803
v 1.719921 -0.273397 0.447580
v 1.719921 -0.199376 0.447579
v 1.719921 -0.273397 0.159803
v 1.719921 -0.199376 0.159803
v 0.040845 -0.062437 0.131025
v 0.040845 0.011584 0.131025
v 0.040845 -0.062437 -0.156751
v 0.040845 0.011584 -0.156751
v 1.719921 -0.062437 0.131025
v 1.719921 0.011584 0.131025
v 1.719921 -0.062437 -0.156751
v 1.719921 0.011584 -0.156751
v 0.040845 0.148523 -0.185529
v 0.040845 0.222544 -0.185529
v 0.040845 0.148523 -0.473305
v 0.040845 0.222544 -0.473305
v 1.719921 0.148523 -0.185529
v 1.719921 0.222544 -0.185529
v 1.719921 0.148523 -0.473305
v 1.719921 0.222544 -0.473305
v 0.040845 0.359483 -0.502083
v 0.040845 0.433504 -0.502083
v 0.040845 0.359483 -0.789860
v 0.040845 0.433504 -0.789860
v 1.719921 0.359483 -0.502083
v 1.719921 0.433504 -0.502083
v 1.719921 0.359483 -0.789860
v 1.719921 0.433504 -0.789860
v 0.040845 0.570443 -0.818638
v 0.040845 0.644464 -0.818638
v 0.040845 0.570443 -1.106414
v 0.040845 0.644464 -1.106414
v 1.719921 0.570443 -0.818638
v 1.719921 0.644464 -0.818638
v 1.719921 0.570443 -1.106414
v 1.719921 0.644464 -1.106414
v 0.040845 0.781403 -1.135192
v 0.040845 0.855424 -1.135192
v 0.040845 0.781403 -1.422968
v 0.040845 0.855424 -1.422969
v 1.719921 0.781403 -1.135192
v 1.719921 0.855424 -1.135192
v 1.719921 0.781403 -1.422968
v 1.719921 0.855424 -1.422968
v 0.040845 0.992363 -1.451746
v 0.040845 1.066384 -1.451746
v 0.040845 0.992363 -1.739523
v 0.040845 1.066384 -1.739523
v 1.719921 0.992363 -1.451746
v 1.719921 1.066384 -1.451746
v 1.719921 0.992363 -1.739523
v 1.719921 1.066384 -1.739523
v 0.040845 1.203323 -1.768301
v 0.040845 1.277344 -1.768301
v 0.040845 1.203323 -2.056077
v 0.040845 1.277344 -2.056077
v 1.719921 1.203323 -1.768301
v 1.719921 1.277344 -1.768301
v 1.719921 1.203323 -2.056077
v 1.719921 1.277344 -2.056077
v 1.703942 -1.532652 2.018639
v 1.773664 -1.532652 2.018639
v 1.703942 -1.308305 2.170775
v 1.773664 -1.308305 2.170775
v 1.703942 1.308305 -2.170775
v 1.773665 1.308305 -2.170775
v 1.703942 1.532651 -2.018639
v 1.773665 1.532651 -2.018639
vn -0.0000 -0.5612 0.8276
vn -0.0000 0.8276 0.5612
vn -0.0000 0.5612 -0.8276
vn -0.0000 -0.8276 -0.5612
vn -1.0000 -0.0000 -0.0000
vn 1.0000 -0.0000 -0.0000
vn -0.0000 -0.0000 -1.0000
vn -0.0000 -0.0000 1.0000
vn -0.0000 -1.0000 -0.0000
vn -0.0000 1.0000 -0.0000
vn -0.0000 0.5613 -0.8276
vt 0.435386 0.810984
vt 0.366388 0.774435
vt 0.399722 0.780878
vt 0.610754 0.774435
vt 0.440169 0.814312
vt 0.398468 0.774435
vt 0.471872 0.774435
vt 0.578674 0.774435
vt 0.432385 0.815659
vt 0.366388 0.806515
vt 0.403821 0.850067
vt 0.610754 0.806515
vt 0.435543 0.819418
vt 0.398468 0.806515
vt 0.471872 0.850086
vt 0.578674 0.806515
vt 0.157458 0.000627
vt 0.932552 0.773182
vt 0.542721 0.000627
vt 0.164713 0.000627
vt 0.939807 0.773182
vt 0.745752 0.000627
vt 0.138411 0.002829
vt 0.561895 0.000627
vt 0.145666 0.002829
vt 0.726578 0.000627
vt 0.157458 0.777585
vt 0.932552 0.000626
vt 0.542721 0.773181
vt 0.164713 0.777585
vt 0.939808 0.000626
vt 0.745752 0.773181
vt 0.138411 0.775383
vt 0.561895 0.773181
vt 0.145666 0.775383
vt 0.726578 0.773181
vt 0.102345 0.000627
vt 0.999373 0.000627
vt 0.624435 0.000627
vt 0.109600 0.000627
vt 0.992118 0.000627
vt 0.684467 0.000627
vt 0.083297 0.002829
vt 0.643610 0.000627
vt 0.090553 0.002829
vt 0.665292 0.000627
vt 0.102345 0.777585
vt 0.999373 0.773181
vt 0.624435 0.773181
vt 0.109600 0.777585
vt 0.992118 0.773181
vt 0.684467 0.773181
vt 0.083297 0.775383
vt 0.643610 0.773181
vt 0.090553 0.775383
vt 0.665292 0.773181
vt 0.062996 0.777584
vt 0.958080 0.773182
vt 0.644864 0.000627
vt 0.055741 0.777584
vt 0.965335 0.773182
vt 0.358865 0.773182
vt 0.082043 0.775383
vt 0.664038 0.000627
vt 0.074788 0.775383
vt 0.378039 0.773182
vt 0.062996 0.000626
vt 0.958080 0.000626
vt 0.644864 0.773181
vt 0.055741 0.000626
vt 0.965336 0.000626
vt 0.358865 0.000626
vt 0.082043 0.002831
vt 0.664038 0.773181
vt 0.074788 0.002831
vt 0.378039 0.000626
vt 0.322799 0.000627
vt 0.924043 0.773182
vt 0.706149 0.000627
vt 0.330054 0.000627
vt 0.931298 0.773182
vt 0.766181 0.000627
vt 0.303751 0.002829
vt 0.725324 0.000627
vt 0.311006 0.002829
vt 0.747006 0.000627
vt 0.322799 0.777585
vt 0.924043 0.000626
vt 0.706149 0.773181
vt 0.330054 0.777585
vt 0.931298 0.000626
vt 0.766181 0.773181
vt 0.303751 0.775383
vt 0.725324 0.773181
vt 0.311006 0.775383
vt 0.747006 0.773181
vt 0.240129 0.000627
vt 0.915534 0.773182
vt 0.481436 0.000627
vt 0.247384 0.000627
vt 0.922789 0.773182
vt 0.582324 0.000627
vt 0.221081 0.002829
vt 0.500610 0.000627
vt 0.228336 0.002829
vt 0.563150 0.000627
vt 0.240129 0.777585
vt 0.915534 0.000626
vt 0.481436 0.773181
vt 0.247384 0.777585
vt 0.922789 0.000626
vt 0.582324 0.773181
vt 0.221081 0.775383
vt 0.500610 0.773181
vt 0.228336 0.775383
vt 0.563150 0.773181
vt 0.035439 0.777584
vt 0.949571 0.773182
vt 0.583578 0.000627
vt 0.028184 0.777584
vt 0.956826 0.773182
vt 0.439324 0.000627
vt 0.054486 0.775383
vt 0.602752 0.000627
vt 0.047231 0.775383
vt 0.420150 0.000627
vt 0.035439 0.000626
vt 0.949571 0.000626
vt 0.583578 0.773181
vt 0.028184 0.000626
vt 0.956826 0.000626
vt 0.439324 0.773181
vt 0.054486 0.002831
vt 0.602752 0.773181
vt 0.047231 0.002831
vt 0.420150 0.773181
vt 0.118109 0.777584
vt 0.941062 0.773182
vt 0.522293 0.000627
vt 0.110854 0.777584
vt 0.948317 0.773182
vt 0.501864 0.773182
vt 0.137157 0.775383
vt 0.541467 0.000627
vt 0.129902 0.775383
vt 0.521038 0.773182
vt 0.118109 0.000626
vt 0.941062 0.000626
vt 0.522293 0.773181
vt 0.110854 0.000626
vt 0.948317 0.000626
vt 0.501864 0.000626
vt 0.137157 0.002831
vt 0.541467 0.773181
vt 0.129902 0.002831
vt 0.521038 0.000626
vt 0.007882 0.777584
vt 0.975099 0.773182
vt 0.767435 0.000627
vt 0.000627 0.777584
vt 0.982354 0.773182
vt 0.888751 0.000627
vt 0.026930 0.775383
vt 0.786609 0.000627
vt 0.019675 0.775383
vt 0.869577 0.000627
vt 0.007882 0.000626
vt 0.975099 0.000626
vt 0.767435 0.773181
vt 0.000627 0.000626
vt 0.982354 0.000626
vt 0.888751 0.773181
vt 0.026930 0.002831
vt 0.786609 0.773181
vt 0.019674 0.002831
vt 0.869577 0.773181
vt 0.173223 0.777584
vt 0.983608 0.773182
vt 0.399722 0.000627
vt 0.165968 0.777584
vt 0.990864 0.773182
vt 0.459753 0.000627
vt 0.192270 0.775383
vt 0.418896 0.000627
vt 0.185015 0.775383
vt 0.440579 0.000627
vt 0.173223 0.000626
vt 0.983608 0.000626
vt 0.399722 0.773181
vt 0.165968 0.000626
vt 0.990864 0.000626
vt 0.459753 0.773181
vt 0.192270 0.002831
vt 0.418896 0.773181
vt 0.185015 0.002831
vt 0.440579 0.773181
vt 0.212572 0.000627
vt 0.966590 0.773182
vt 0.379293 0.000627
vt 0.219827 0.000627
vt 0.973845 0.773182
vt 0.480181 0.000627
vt 0.193524 0.002829
vt 0.398468 0.000627
vt 0.200780 0.002829
vt 0.461007 0.000627
vt 0.212572 0.777585
vt 0.966590 0.000626
vt 0.379293 0.773181
vt 0.219827 0.777585
vt 0.973845 0.000626
vt 0.480181 0.773181
vt 0.193524 0.775383
vt 0.398468 0.773181
vt 0.200780 0.775383
vt 0.461007 0.773181
vt 0.350356 0.000627
vt 0.890006 0.773182
vt 0.828720 0.000627
vt 0.357611 0.000627
vt 0.897261 0.773182
vt 0.787863 0.773182
vt 0.331308 0.002829
vt 0.847894 0.000627
vt 0.338563 0.002829
vt 0.807038 0.773182
vt 0.350356 0.777585
vt 0.890006 0.000626
vt 0.828720 0.773181
vt 0.357611 0.777585
vt 0.897261 0.000626
vt 0.787863 0.000626
vt 0.331308 0.775383
vt 0.847894 0.773181
vt 0.338563 0.775383
vt 0.807038 0.000626
vt 0.295242 0.000627
vt 0.907024 0.773182
vt 0.604007 0.000627
vt 0.302497 0.000627
vt 0.914279 0.773182
vt 0.704895 0.000627
vt 0.276195 0.002829
vt 0.623181 0.000627
vt 0.283450 0.002829
vt 0.685721 0.000627
vt 0.295242 0.777585
vt 0.907024 0.000626
vt 0.604007 0.773181
vt 0.302497 0.777585
vt 0.914279 0.000626
vt 0.704895 0.773181
vt 0.276195 0.775383
vt 0.623181 0.773181
vt 0.283450 0.775383
vt 0.685721 0.773181
vt 0.267685 0.000627
vt 0.898515 0.773182
vt 0.849149 0.000627
vt 0.274940 0.000627
vt 0.905770 0.773182
vt 0.827466 0.000627
vt 0.248638 0.002829
vt 0.868323 0.000627
vt 0.255893 0.002829
vt 0.808292 0.000627
vt 0.267685 0.777585
vt 0.898515 0.000626
vt 0.849149 0.773181
vt 0.274940 0.777585
vt 0.905770 0.000626
vt 0.827466 0.773181
vt 0.248638 0.775383
vt 0.868323 0.773181
vt 0.255893 0.775383
vt 0.808292 0.773181
vt 0.544086 0.846950
vt 0.612008 0.774435
vt 0.509200 0.815150
vt 0.577420 0.774435
vt 0.544086 0.774435
vt 0.644088 0.774435
vt 0.512436 0.810962
vt 0.545340 0.774435
vt 0.473126 0.848831
vt 0.612008 0.806515
vt 0.504776 0.812304
vt 0.577420 0.806515
vt 0.473126 0.776316
vt 0.644088 0.806515
vt 0.508012 0.808117
vt 0.545340 0.806515
s 0
usemtl Material.012
f 1/1/1 2/3/1 4/7/1 3/5/1
f 3/5/2 4/7/2 8/15/2 7/13/2
f 7/13/3 8/15/3 6/11/3 5/9/3
f 5/9/4 6/11/4 2/3/4 1/1/4
f 3/6/5 7/14/5 5/10/5 1/2/5
f 8/16/6 4/8/6 2/4/6 6/12/6
f 9/17/5 10/20/5 12/25/5 11/23/5
f 11/23/7 12/25/7 16/35/7 15/33/7
f 15/33/6 16/35/6 14/30/6 13/27/6
f 13/28/8 14/31/8 10/21/8 9/18/8
f 11/24/9 15/34/9 13/29/9 9/19/9
f 16/36/10 12/26/10 10/22/10 14/32/10
f 17/37/5 18/40/5 20/45/5 19/43/5
f 19/43/7 20/45/7 24/55/7 23/53/7
f 23/53/6 24/55/6 22/50/6 21/47/6
f 21/48/8 22/51/8 18/41/8 17/38/8
f 19/44/9 23/54/9 21/49/9 17/39/9
f 24/56/10 20/46/10 18/42/10 22/52/10
f 25/57/5 26/60/5 28/65/5 27/63/5
f 27/63/7 28/65/7 32/75/7 31/73/7
f 31/73/6 32/75/6 30/70/6 29/67/6
f 29/68/8 30/71/8 26/61/8 25/58/8
f 27/64/9 31/74/9 29/69/9 25/59/9
f 32/76/10 28/66/10 26/62/10 30/72/10
f 33/77/5 34/80/5 36/85/5 35/83/5
f 35/83/7 36/85/7 40/95/7 39/93/7
f 39/93/6 40/95/6 38/90/6 37/87/6
f 37/88/8 38/91/8 34/81/8 33/78/8
f 35/84/9 39/94/9 37/89/9 33/79/9
f 40/96/10 36/86/10 34/82/10 38/92/10
f 41/97/5 42/100/5 44/105/5 43/103/5
f 43/103/7 44/105/7 48/115/7 47/113/7
f 47/113/6 48/115/6 46/110/6 45/107/6
f 45/108/8 46/111/8 42/101/8 41/98/8
f 43/104/9 47/114/9 45/109/9 41/99/9
f 48/116/10 44/106/10 42/102/10 46/112/10
f 49/117/5 50/120/5 52/125/5 51/123/5
f 51/123/7 52/125/7 56/135/7 55/133/7
f 55/133/6 56/135/6 54/130/6 53/127/6
f 53/128/8 54/131/8 50/121/8 49/118/8
f 51/124/9 55/134/9 53/129/9 49/119/9
f 56/136/10 52/126/10 50/122/10 54/132/10
f 57/137/5 58/140/5 60/145/5 59/143/5
f 59/143/7 60/145/7 64/155/7 63/153/7
f 63/153/6 64/155/6 62/150/6 61/147/6
f 61/148/8 62/151/8 58/141/8 57/138/8
f 59/144/9 63/154/9 61/149/9 57/139/9
f 64/156/10 60/146/10 58/142/10 62/152/10
f 65/157/5 66/160/5 68/165/5 67/163/5
f 67/163/7 68/165/7 72/175/7 71/173/7
f 71/173/6 72/175/6 70/170/6 69/167/6
f 69/168/8 70/171/8 66/161/8 65/158/8
f 67/164/9 71/174/9 69/169/9 65/159/9
f 72/176/10 68/166/10 66/162/10 70/172/10
f 73/177/5 74/180/5 76/185/5 75/183/5
f 75/183/7 76/185/7 80/195/7 79/193/7
f 79/193/6 80/195/6 78/190/6 77/187/6
f 77/188/8 78/191/8 74/181/8 73/178/8
f 75/184/9 79/194/9 77/189/9 73/179/9
f 80/196/10 76/186/10 74/182/10 78/192/10
f 81/197/5 82/200/5 84/205/5 83/203/5
f 83/203/7 84/205/7 88/215/7 87/213/7
f 87/213/6 88/215/6 86/210/6 85/207/6
f 85/208/8 86/211/8 82/201/8 81/198/8
f 83/204/9 87/214/9 85/209/9 81/199/9
f 88/216/10 84/206/10 82/202/10 86/212/10
f 89/217/5 90/220/5 92/225/5 91/223/5
f 91/223/7 92/225/7 96/235/7 95/233/7
f 95/233/6 96/235/6 94/230/6 93/227/6
f 93/228/8 94/231/8 90/221/8 89/218/8
f 91/224/9 95/234/9 93/229/9 89/219/9
f 96/236/10 92/226/10 90/222/10 94/232/10
f 97/237/5 98/240/5 100/245/5 99/243/5
f 99/243/7 100/245/7 104/255/7 103/253/7
f 103/253/6 104/255/6 102/250/6 101/247/6
f 101/248/8 102/251/8 98/241/8 97/238/8
f 99/244/9 103/254/9 101/249/9 97/239/9
f 104/256/10 100/246/10 98/242/10 102/252/10
f 105/257/5 106/260/5 108/265/5 107/263/5
f 107/263/7 108/265/7 112/275/7 111/273/7
f 111/273/6 112/275/6 110/270/6 109/267/6
f 109/268/8 110/271/8 106/261/8 105/258/8
f 107/264/9 111/274/9 109/269/9 105/259/9
f 112/276/10 108/266/10 106/262/10 110/272/10
f 113/277/1 114/279/1 116/283/1 115/281/1
f 115/281/2 116/283/2 120/291/2 119/289/2
f 119/289/11 120/291/11 118/287/11 117/285/11
f 117/285/4 118/287/4 114/279/4 113/277/4
f 115/282/5 119/290/5 117/286/5 113/278/5
f 120/292/6 116/284/6 114/280/6 118/288/6
