# Blender 3.4.1
# www.blender.org
mtllib window2.mtl
o WindowWall
v -0.087772 0.018188 2.302078
v -0.087772 3.006150 2.302078
v 0.117410 -0.018538 2.338804
v 0.117410 3.042876 2.338804
v -0.087772 0.018188 0.496157
v -0.087772 0.018188 1.403283
v -0.087772 3.006151 1.403283
v -0.087772 3.006151 0.496156
v 0.117410 -0.018538 1.403283
v 0.117410 -0.018538 0.496156
v 0.117410 3.042877 0.496157
v 0.117410 3.042877 1.403283
v 0.107871 0.056695 0.455822
v 0.107871 2.455602 0.455822
v 0.117410 0.046446 1.343325
v 0.117410 0.046764 0.534862
v 0.117410 2.933099 0.534862
v 0.117410 2.933099 1.343325
v 0.117410 2.933495 1.460722
v 0.117410 2.933495 2.281365
v 0.117410 0.046799 2.281365
v 0.117410 0.046479 1.460722
v -0.027077 0.046446 1.343325
v -0.027077 0.046764 0.534862
v -0.027077 2.933099 0.534862
v -0.027077 2.933099 1.343325
v -0.027077 2.933495 1.460722
v -0.027077 2.933495 2.281365
v -0.027077 0.046799 2.281365
v -0.027077 0.046479 1.460722
v 0.107419 2.954709 0.453911
v -0.087772 2.455876 2.302078
v 0.117410 2.455876 0.496157
v 0.117410 2.455876 1.403283
v -0.106809 2.455876 1.403283
v -0.087772 2.455876 0.496156
v 0.117410 2.455881 0.534862
v 0.117410 2.455881 1.343325
v 0.117410 2.455879 2.281365
v 0.117410 2.455880 1.460722
v -0.027077 2.455881 0.534862
v -0.027077 2.455881 1.343325
v -0.027077 2.455879 2.281365
v -0.027077 2.455880 1.460722
v 0.117410 0.047010 0.496156
v 0.117410 0.047010 1.403283
v -0.087772 0.047010 1.403283
v -0.087772 0.047010 0.496157
v 0.117410 0.046446 0.534862
v 0.117410 0.046479 2.281365
v -0.027077 0.046446 0.534862
v -0.027077 0.046479 2.281365
v -0.087772 0.047010 2.302078
v -0.018186 0.056695 0.455822
v -0.018186 2.455602 0.455822
v -0.018638 2.954709 0.453911
v -0.087772 0.018188 1.999372
v 0.117410 3.042877 1.999372
v -0.087772 3.006151 1.999372
v 0.117410 -0.018538 1.999372
v 0.117410 2.933495 1.999372
v 0.117410 0.046799 1.999372
v -0.027077 2.933495 1.999372
v -0.027077 0.046479 1.999372
v -0.027077 2.455880 1.999372
v -0.087772 2.492603 2.036098
v -0.087772 0.047010 1.999372
v -0.087772 0.018188 0.822863
v -0.087772 3.006151 0.822863
v 0.117410 -0.018538 0.822863
v 0.117410 3.042877 0.822863
v 0.117410 0.046764 0.809294
v 0.117410 2.933099 0.809294
v -0.009664 0.046765 0.809294
v -0.027077 2.933099 0.809294
v -0.027077 2.455881 0.809294
v -0.106809 2.455876 0.822863
v -0.087772 0.047010 0.822863
v -0.087772 1.180670 2.302078
v 0.117410 1.180670 0.496156
v 0.117410 1.180670 1.403283
v -0.106809 1.180670 1.403283
v -0.087772 1.180670 0.496156
v 0.117410 1.180373 0.534862
v 0.117410 1.180373 1.343325
v 0.117410 1.180391 2.281365
v 0.117410 1.180391 1.460722
v -0.027077 1.180373 0.534862
v -0.027077 1.180373 1.343325
v -0.027077 1.180391 2.281365
v -0.027077 1.180391 1.460722
v 0.107871 1.185668 0.455822
v -0.018186 1.185668 0.455822
v -0.106809 1.180670 1.999372
v -0.027077 1.180391 1.999372
v -0.106809 1.180670 0.822863
v -0.027077 1.180373 0.809294
v 0.117410 1.180391 1.994801
v 0.117410 1.180373 0.796394
v 0.117410 2.455881 0.811738
v 0.117410 2.455880 1.986569
v 0.113522 2.385114 1.454356
v -0.023165 2.385114 1.454356
v 0.113522 2.385114 1.349986
v -0.023165 2.385114 1.349986
v -0.023165 2.385114 0.875218
v 0.113522 2.385110 1.403291
v -0.106350 2.385110 1.933230
v -0.106350 2.385110 1.403291
v -0.023165 2.385114 1.933230
v -0.106350 2.385110 0.887281
v -0.106350 1.251416 1.933230
v -0.023165 1.251168 1.933230
v -0.106350 1.251416 0.887281
v -0.023165 1.251152 0.875218
v -0.106350 1.251416 1.403291
v -0.023165 1.251168 1.454356
v 0.113522 1.251416 1.403291
v 0.113522 1.251152 1.349986
v -0.023165 1.251152 1.349986
v 0.113522 1.251168 1.454356
v 0.115945 1.251168 1.929167
v 0.115946 1.251152 0.863750
v 0.115946 2.385114 0.877390
v 0.115945 2.385114 1.921848
v -0.017639 2.385110 1.403291
v -0.016464 1.251416 1.403291
v -0.106809 -0.018538 1.999372
v -0.106809 -0.018538 2.338804
v -0.106809 3.042876 2.338804
v -0.106809 -0.018538 0.822863
v -0.106809 -0.018538 1.403283
v -0.106809 3.042877 1.999372
v -0.106809 3.042877 1.403283
v -0.106809 3.042877 0.822863
v -0.106809 3.042877 0.496157
v -0.106809 -0.018538 0.496157
v -0.106809 2.455876 1.999372
v -0.087772 2.492603 1.403283
v -0.087772 2.492603 0.786136
v -0.087772 1.143943 2.036098
v -0.087772 1.143943 0.786136
v -0.087772 1.143943 1.403283
vn -0.0000 -1.0000 -0.0000
vn -0.0000 1.0000 -0.0000
vn 1.0000 -0.0000 -0.0000
vn -1.0000 -0.0000 -0.0000
vn -0.0000 -0.0000 1.0000
vn -0.0011 1.0000 -0.0003
vn -0.0000 -0.0000 -1.0000
vn 0.9732 -0.0000 -0.2302
vn 0.9732 -0.0000 -0.2301
vn -0.0000 -0.0038 -1.0000
vn -0.0011 1.0000 -0.0006
vn -0.9980 -0.0000 0.0633
vn -0.0000 1.0000 0.0006
vn 0.9995 0.0077 -0.0317
vn 0.9998 0.0077 0.0163
vn 0.0600 0.0032 0.9982
vn 0.9993 -0.0366 -0.0024
vn 0.9993 -0.0366 0.0024
vn -1.0000 0.0065 -0.0000
vn 0.9985 -0.0549 -0.0000
vn 0.9998 -0.0003 0.0220
vn 0.9993 0.0366 0.0023
vn 0.9985 0.0549 0.0003
vn -1.0000 -0.0065 -0.0000
vn 0.9993 0.0366 -0.0024
vn -1.0000 -0.0000 0.0071
vn 0.9997 -0.0001 -0.0225
vn 0.9985 0.0549 -0.0003
vn -1.0000 -0.0000 -0.0069
vn -0.0554 -0.0032 -0.9985
vn 0.0334 -0.0060 0.9994
vn -0.0000 -1.0000 0.0001
vn -0.0000 -1.0000 -0.0001
vn -0.0000 1.0000 -0.0050
vn -0.0000 1.0000 0.0049
vn 0.0030 1.0000 -0.0000
vn 0.0032 1.0000 -0.0000
vn 0.1435 -0.0000 0.9896
vn -0.0000 1.0000 -0.0002
vn -0.0362 0.0060 -0.9993
vn -0.8878 0.4602 -0.0000
vn -0.8878 -0.4602 -0.0000
vn -0.8878 -0.0000 0.4602
vn -0.8878 -0.0000 -0.4602
vt 0.809491 0.540899
vt 0.463276 0.540879
vt 0.389575 0.036664
vt 0.030441 0.088790
vt 0.810318 0.330822
vt 0.810343 0.436690
vt 0.460776 0.436983
vt 0.461098 0.330547
vt 0.893948 0.000222
vt 0.423151 0.155209
vt 0.411912 0.281988
vt 0.033742 0.294768
vt 0.922843 0.494741
vt 0.027548 0.181328
vt 0.401700 0.287484
vt 0.116192 0.297407
vt 0.902421 0.008416
vt 0.414165 0.164056
vt 0.402506 0.276250
vt 0.049102 0.288845
vt 0.040112 0.187863
vt 0.930626 0.476230
vt 0.912162 0.478630
vt 0.039755 0.174678
vt 0.040778 0.090816
vt 0.382810 0.042902
vt 0.412996 0.148222
vt 0.886775 0.009296
vt 0.925369 0.006766
vt 0.395416 0.165089
vt 0.847283 0.882546
vt 0.390944 0.260456
vt 0.060969 0.272124
vt 0.753192 0.546707
vt 0.847250 0.546707
vt 0.056335 0.187234
vt 0.947704 0.475520
vt 0.891610 0.481697
vt 0.562493 0.546707
vt 0.055712 0.173985
vt 0.657968 0.546707
vt 0.053596 0.099057
vt 0.375358 0.058886
vt 0.394222 0.150295
vt 0.562493 0.882588
vt 0.868062 0.009818
vt 0.047309 0.300707
vt 0.525809 0.541452
vt 0.115973 0.292790
vt 0.913431 0.398276
vt 0.525217 0.436694
vt 0.525677 0.330745
vt 0.115828 0.288476
vt 0.923568 0.396768
vt 0.088661 0.066890
vt 0.903507 0.398365
vt 0.115827 0.273061
vt 0.753192 0.602227
vt 0.847250 0.602227
vt 0.948224 0.409062
vt 0.657968 0.602273
vt 0.094494 0.083930
vt 0.562493 0.602273
vt 0.881468 0.413760
vt 0.403245 0.281954
vt 0.894436 0.008959
vt 0.806974 0.436681
vt 0.806960 0.330828
vt 0.402456 0.276272
vt 0.382770 0.042892
vt 0.753128 0.882546
vt 0.390904 0.260467
vt 0.375326 0.058882
vt 0.657968 0.882588
vt 0.806211 0.540952
vt 0.388610 0.302556
vt 0.116814 0.311210
vt 0.062459 0.316107
vt 0.809985 0.506366
vt 0.029647 0.119313
vt 0.461827 0.506762
vt 0.407736 0.075747
vt 0.040029 0.119584
vt 0.399902 0.078283
vt 0.625160 0.546707
vt 0.053867 0.120057
vt 0.381458 0.084494
vt 0.625160 0.882588
vt 0.625160 0.602273
vt 0.818608 0.374631
vt 0.521708 0.510587
vt 0.806622 0.506335
vt 0.810354 0.368835
vt 0.460922 0.368717
vt 0.419951 0.232896
vt 0.028778 0.249631
vt 0.411490 0.233601
vt 0.041608 0.249976
vt 0.396671 0.230937
vt 0.785120 0.882525
vt 0.059411 0.247515
vt 0.785120 0.546707
vt 0.785120 0.602227
vt 0.999778 0.365013
vt 0.526110 0.369400
vt 0.806993 0.368835
vt 0.674012 0.541444
vt 0.260558 0.283758
vt 0.905054 0.200788
vt 0.674722 0.436663
vt 0.674205 0.330927
vt 0.260423 0.279204
vt 0.915571 0.200878
vt 0.244744 0.037251
vt 0.895117 0.202048
vt 0.753192 0.750623
vt 0.259824 0.262601
vt 0.847250 0.750623
vt 0.938318 0.186862
vt 0.246244 0.055232
vt 0.657968 0.750667
vt 0.562493 0.750667
vt 0.870014 0.188810
vt 0.260196 0.288189
vt 0.260799 0.301215
vt 0.673605 0.505694
vt 0.625160 0.750667
vt 0.815624 0.234676
vt 0.673607 0.369396
vt 0.785120 0.750623
vt 0.999778 0.226156
vt 0.831080 0.242165
vt 0.981496 0.236541
vt 0.984773 0.357658
vt 0.837278 0.365605
vt 0.905366 0.387847
vt 0.905146 0.369913
vt 0.920349 0.386865
vt 0.918444 0.369025
vt 0.964236 0.343952
vt 0.912724 0.387545
vt 0.534514 0.498009
vt 0.862446 0.344826
vt 0.533456 0.436682
vt 0.911223 0.360163
vt 0.854232 0.350300
vt 0.534238 0.376933
vt 0.955673 0.339705
vt 0.665557 0.498056
vt 0.860914 0.261535
vt 0.853992 0.257040
vt 0.665544 0.376851
vt 0.955278 0.254557
vt 0.962184 0.249656
vt 0.666475 0.436666
vt 0.906796 0.240487
vt 0.899672 0.231219
vt 0.905675 0.211765
vt 0.913636 0.211398
vt 0.913419 0.230829
vt 0.898145 0.212343
vt 0.839450 0.246952
vt 0.973500 0.241639
vt 0.978815 0.353961
vt 0.842822 0.361276
vt 0.911733 0.370365
vt 0.906374 0.229887
vt 0.438856 0.061598
vt 0.814819 0.506419
vt 0.405904 0.011757
vt 0.814095 0.545344
vt 0.011401 0.075967
vt 0.458826 0.545505
vt 0.451321 0.236511
vt 0.815180 0.368834
vt 0.455474 0.152672
vt 0.815180 0.436702
vt 0.003358 0.116050
vt 0.457014 0.506905
vt 0.001725 0.181416
vt 0.455919 0.437015
vt 0.000222 0.250961
vt 0.456072 0.368701
vt 0.001715 0.296779
vt 0.456264 0.330523
vt 0.444261 0.284530
vt 0.815136 0.330816
vt 0.526427 0.505738
vt 0.520313 0.436703
vt 0.521416 0.364681
vt 0.678276 0.510409
vt 0.678342 0.364540
vt 0.679626 0.436660
s 0
usemtl Material.005
f 128/168/1 60/82/1 3/3/1 129/170/1
f 58/80/2 133/178/2 130/172/2 4/4/2
f 71/96/2 135/182/2 134/180/2 12/14/2
f 131/174/1 70/95/1 9/10/1 132/176/1
f 71/96/3 12/14/3 18/21/3 73/98/3
f 66/91/4 59/81/4 7/7/4 139/189/4
f 140/190/4 69/94/4 8/8/4 36/52/4
f 61/83/1 20/25/1 28/42/1 63/86/1
f 72/97/2 16/19/2 24/32/2 74/99/2
f 33/49/3 11/12/3 17/20/3 37/53/3
f 70/95/3 10/11/3 16/19/3 72/97/3
f 46/66/3 9/9/3 15/17/3
f 60/82/3 9/10/3 22/27/3 62/84/3
f 58/80/3 4/4/3 20/25/3 61/83/3
f 34/50/3 12/13/3 19/23/3 40/56/3
f 76/103/3 75/102/3 26/35/3 42/59/3
f 65/89/3 63/85/3 28/41/3 43/61/3
f 73/98/1 18/21/1 26/36/1 75/101/1
f 50/70/5 21/26/5 29/43/5 52/73/5
f 37/53/5 17/20/5 25/33/5 41/57/5
f 62/84/6 22/27/6 30/44/6 64/87/6
f 40/56/5 19/23/5 27/38/5 44/64/5
f 18/22/7 38/54/7 42/60/7 26/37/7
f 84/112/5 37/53/5 41/57/5 88/117/5
f 20/25/7 39/55/7 43/62/7 28/42/7
f 95/127/3 65/89/3 43/61/3 90/121/3
f 12/13/3 34/50/3 38/54/3 18/22/3
f 80/108/3 33/49/3 37/53/3 84/112/3
f 142/192/4 140/190/4 36/52/4 83/111/4
f 57/79/4 67/92/4 47/67/4 6/6/4
f 68/93/4 78/106/4 48/68/4 5/5/4
f 10/11/3 45/65/3 49/69/3 16/19/3
f 9/9/3 46/66/3 22/28/3
f 64/87/4 52/73/4 29/43/4
f 16/19/7 49/69/7 51/72/7 24/32/7
f 85/113/7 15/17/7 23/29/7 89/119/7
f 86/114/7 50/70/7 52/73/7 90/120/7
f 81/109/3 46/66/3 15/17/3 85/113/3
f 80/108/8 45/65/8 13/15/8 92/124/8
f 10/11/8 13/15/8 45/65/8
f 11/12/9 33/49/9 14/16/9 31/47/9
f 14/16/10 55/77/10 56/78/10 31/47/10
f 92/124/7 13/15/7 54/76/7 93/125/7
f 1/1/4 53/75/4 67/92/4 57/79/4
f 79/107/4 32/48/4 66/91/4 141/191/4
f 21/26/11 62/84/11 64/87/11 29/43/11
f 44/63/3 27/39/3 63/85/3 65/89/3
f 12/14/3 58/80/3 61/83/3 19/24/3
f 3/3/3 60/82/3 62/84/3 21/26/3
f 19/24/1 61/83/1 63/86/1 27/40/1
f 32/48/4 2/2/4 59/81/4 66/91/4
f 12/14/2 134/180/2 133/178/2 58/80/2
f 132/176/1 9/10/1 60/82/1 128/168/1
f 24/32/12 51/72/12 74/99/12
f 6/6/4 47/67/4 78/106/4 68/93/4
f 88/116/3 41/58/3 76/103/3 97/130/3
f 17/20/1 73/98/1 75/101/1 25/33/1
f 41/58/3 25/34/3 75/102/3 76/103/3
f 9/10/3 70/95/3 72/97/3 15/18/3
f 15/18/13 72/97/13 74/99/13 23/30/13
f 139/189/4 7/7/4 69/94/4 140/190/4
f 11/12/3 71/96/3 73/98/3 17/20/3
f 137/186/1 10/11/1 70/95/1 131/174/1
f 11/12/2 136/184/2 135/182/2 71/96/2
f 51/71/14 88/116/14 97/130/14 74/100/14
f 47/67/4 143/193/4 142/192/4 78/106/4
f 30/45/3 91/122/3 95/127/3 64/88/3
f 53/75/4 79/107/4 141/191/4 67/92/4
f 14/16/7 92/124/7 93/125/7 55/77/7
f 33/49/9 80/108/9 92/124/9 14/16/9
f 39/55/7 86/114/7 90/120/7 43/62/7
f 67/92/4 141/191/4 143/193/4 47/67/4
f 78/106/4 142/192/4 83/111/4 48/68/4
f 45/65/3 80/108/3 84/112/3 49/69/3
f 46/66/3 81/109/3 87/115/3 22/28/3
f 74/100/15 97/130/15 89/118/15 23/31/15
f 64/88/3 95/127/3 90/121/3 52/74/3
f 49/69/5 84/112/5 88/117/5 51/72/5
f 22/28/5 87/115/5 91/123/5 30/46/5
f 95/128/16 98/132/16 101/135/16 65/90/16
f 40/56/2 44/64/2 65/90/2 101/135/2
f 101/135/17 125/165/17 102/136/17 40/56/17
f 38/54/18 104/138/18 124/164/18 100/134/18
f 96/129/19 82/110/19 116/155/19 114/152/19
f 38/54/20 34/50/20 107/141/20 104/138/20
f 100/134/21 124/164/21 123/163/21 99/133/21
f 99/133/22 123/163/22 119/159/22 85/113/22
f 34/50/20 40/56/20 102/136/20 107/141/20
f 87/115/23 81/109/23 118/158/23 121/161/23
f 35/51/24 77/105/24 111/147/24 109/144/24
f 87/115/25 121/161/25 122/162/25 98/132/25
f 77/105/26 96/129/26 114/152/26 111/147/26
f 82/110/19 94/126/19 112/149/19 116/155/19
f 98/132/27 122/162/27 125/165/27 101/135/27
f 138/188/24 35/51/24 109/144/24 108/142/24
f 81/109/28 85/113/28 119/159/28 118/158/28
f 94/126/29 138/188/29 108/142/29 112/149/29
f 113/151/2 122/162/2 121/161/2 117/157/2
f 123/163/2 115/154/2 120/160/2 119/159/2
f 124/164/1 104/138/1 105/139/1 106/140/1
f 113/151/30 110/146/30 125/165/30 122/162/30
f 106/140/31 115/154/31 123/163/31 124/164/31
f 102/136/1 125/165/1 110/146/1 103/137/1
f 107/141/32 102/136/32 103/137/32 126/166/32
f 104/138/33 107/141/33 126/166/33 105/139/33
f 127/167/34 118/158/34 119/159/34 120/160/34
f 118/158/35 127/167/35 117/157/35 121/161/35
f 110/146/7 113/151/7 112/150/7 108/143/7
f 110/146/1 108/143/1 109/145/1 103/137/1
f 117/157/36 116/156/36 112/150/36 113/151/36
f 114/153/37 116/156/37 120/160/37 115/154/37
f 106/140/38 111/148/38 114/153/38 115/154/38
f 111/148/1 106/140/1 105/139/1 109/145/1
f 103/137/1 109/145/1 105/139/1 126/166/1
f 120/160/39 116/156/39 117/157/39 127/167/39
f 95/128/1 91/123/1 87/115/1 98/132/1
f 85/113/1 89/119/1 97/131/1 99/133/1
f 76/104/40 100/134/40 99/133/40 97/131/40
f 38/54/2 100/134/2 76/104/2 42/60/2
f 1/1/41 57/79/41 128/169/41 129/171/41
f 6/6/41 68/93/41 131/175/41 132/177/41
f 7/7/42 59/81/42 133/179/42 134/181/42
f 8/8/42 69/94/42 135/183/42 136/185/42
f 66/91/41 139/189/41 35/51/41 138/188/41
f 57/79/41 6/6/41 132/177/41 128/169/41
f 59/81/42 2/2/42 130/173/42 133/179/42
f 68/93/41 5/5/41 137/187/41 131/175/41
f 69/94/42 7/7/42 134/181/42 135/183/42
f 139/189/41 140/190/41 77/105/41 35/51/41
f 141/191/43 66/91/43 138/188/43 94/126/43
f 140/190/44 142/192/44 96/129/44 77/105/44
f 142/192/42 143/193/42 82/110/42 96/129/42
f 143/193/42 141/191/42 94/126/42 82/110/42
