# Blender 3.4.1
# www.blender.org
mtllib WindowWallSegment.mtl
o WindowWallSegment
v -0.087772 0.018188 2.302078
v -0.087772 3.006151 2.302078
v 0.117410 -0.018538 2.338804
v 0.117410 3.042877 2.338804
v -0.087772 0.018188 0.496157
v -0.087772 0.018188 1.403283
v -0.087772 3.006151 1.403283
v -0.087772 3.006151 0.496156
v 0.117410 -0.018538 1.403283
v 0.117410 -0.018538 0.460901
v 0.117410 3.042877 0.490852
v 0.117410 3.042877 1.403283
v 0.117410 0.046446 1.343325
v 0.117410 0.046764 0.521863
v 0.117410 2.933099 0.521863
v 0.117410 2.933099 1.343325
v 0.117410 2.933495 1.460722
v 0.117410 2.933495 2.281365
v 0.117410 0.046799 2.281365
v 0.117410 0.046479 1.460722
v -0.027077 0.046446 1.343325
v -0.027077 0.046764 0.534862
v -0.027077 2.933099 0.521863
v -0.027077 2.933099 1.343325
v -0.027077 2.933495 1.460722
v -0.027077 2.933495 2.281365
v -0.027077 0.046799 2.281365
v -0.027077 0.046479 1.460722
v -0.087772 2.455876 2.302078
v 0.117410 2.455876 2.338804
v 0.117410 2.455876 0.490852
v 0.117410 2.455876 1.403283
v -0.106809 2.455876 1.403283
v -0.087772 2.455876 0.496156
v 0.117410 2.455881 0.521863
v 0.117410 2.455881 1.343325
v 0.117410 2.455880 2.281365
v 0.117410 2.455880 1.460722
v -0.027077 2.455881 0.521863
v -0.027077 2.455881 1.343325
v -0.027077 2.455880 2.281365
v -0.027077 2.455880 1.460722
v 0.117410 0.047010 2.338805
v 0.117410 0.047010 1.403283
v -0.087772 0.047010 1.403283
v -0.087772 0.047010 0.496157
v 0.117410 0.046479 2.281365
v -0.027077 0.046446 0.521863
v -0.027077 0.046479 2.281365
v -0.087772 0.047010 2.302078
v -0.087772 0.018188 1.999372
v 0.117410 3.042877 1.999372
v -0.087772 3.006151 1.999372
v 0.117410 -0.018538 1.999372
v 0.117410 2.933495 1.999372
v 0.117410 0.046799 1.999372
v -0.027077 2.933495 1.999372
v -0.027077 0.046479 1.999372
v -0.027077 2.455880 1.999372
v -0.087772 2.492603 2.036098
v -0.087772 0.047010 1.999372
v -0.087772 0.018188 0.822863
v -0.087772 3.006151 0.822863
v 0.117410 -0.018538 0.822863
v 0.117410 3.042877 0.822863
v 0.117410 0.046764 0.809294
v 0.117410 2.933099 0.809294
v -0.009664 0.046765 0.809294
v -0.027077 2.933099 0.809294
v -0.027077 2.455881 0.809294
v -0.106809 2.455876 0.822863
v -0.087772 0.047010 0.822863
v -0.087772 1.180670 2.302078
v 0.117410 1.180670 2.338805
v 0.117410 1.180670 0.490852
v 0.117410 1.180670 1.403283
v -0.106809 1.180670 1.403283
v -0.087772 1.180670 0.496156
v 0.117410 1.180373 0.521863
v 0.117410 1.180373 1.343325
v 0.117410 1.180391 2.281365
v 0.117410 1.180391 1.460722
v -0.027077 1.180373 0.521863
v -0.027077 1.180373 1.343325
v -0.027077 1.180391 2.281365
v -0.027077 1.180391 1.460722
v -0.106809 1.180670 1.999372
v -0.027077 1.180391 1.999372
v -0.106809 1.180670 0.822863
v -0.027077 1.180373 0.809294
v 0.117410 1.180391 1.994801
v 0.117410 1.180373 0.796394
v 0.117410 2.455881 0.811738
v 0.117410 2.455880 1.986569
v 0.113522 2.385114 1.454356
v -0.023165 2.385114 1.454356
v 0.113522 2.385114 1.349986
v -0.023165 2.385114 1.349986
v -0.023165 2.385114 0.875218
v 0.113522 2.385110 1.403291
v -0.106350 2.385110 1.933230
v -0.106350 2.385110 1.403291
v -0.023165 2.385114 1.933230
v -0.106350 2.385110 0.887281
v -0.106350 1.251416 1.933230
v -0.023165 1.251168 1.933230
v -0.106350 1.251416 0.887281
v -0.023165 1.251152 0.875218
v -0.106350 1.251416 1.403291
v -0.023165 1.251168 1.454356
v 0.113522 1.251416 1.403291
v 0.113522 1.251152 1.349986
v -0.023165 1.251152 1.349986
v 0.113522 1.251168 1.454356
v 0.115945 1.251168 1.929167
v 0.115946 1.251152 0.863750
v 0.115946 2.385114 0.877390
v 0.115945 2.385114 1.921848
v -0.017639 2.385110 1.403291
v -0.016464 1.251416 1.403291
v -0.106809 -0.018538 1.999372
v -0.106809 -0.018538 2.338804
v -0.106809 2.455876 2.338804
v -0.106809 3.042877 2.338804
v -0.106809 -0.018538 0.822863
v -0.106809 -0.018538 1.403283
v -0.106809 3.042877 1.999372
v -0.106809 3.042877 1.403283
v -0.106809 3.042877 0.822863
v -0.120296 3.042877 0.460901
v -0.120296 -0.018538 0.460901
v -0.106809 1.180670 2.338805
v -0.106809 2.455876 1.999372
v -0.087772 2.492603 1.403283
v -0.106809 0.047010 2.338805
v -0.087772 2.492603 0.786136
v -0.087772 1.143943 2.036098
v -0.087772 1.143943 0.786136
v -0.087772 1.143943 1.403283
v 0.117410 3.042877 0.460901
v 0.117410 0.046764 0.490705
v 0.117410 2.455876 0.460901
v -0.120296 2.455876 0.460901
v -0.120296 0.047010 0.460901
v 0.117410 1.180670 0.460901
v -0.120296 1.180670 0.460901
v 0.117410 0.046764 0.462077
vn 1.0000 -0.0000 -0.0000
vn -0.0000 -0.0000 1.0000
vn -0.0000 -1.0000 -0.0000
vn -0.0000 1.0000 -0.0000
vn -1.0000 -0.0000 -0.0000
vn -0.0011 1.0000 -0.0003
vn -0.0000 -0.0000 -1.0000
vn -0.0022 0.9997 -0.0245
vn -0.0011 1.0000 -0.0006
vn -0.3605 -0.9325 0.0229
vn -0.0000 1.0000 0.0006
vn 0.9995 0.0077 -0.0303
vn 0.9998 0.0077 0.0163
vn 0.0600 0.0032 0.9982
vn 0.9993 -0.0366 -0.0024
vn 0.9993 -0.0366 0.0024
vn -1.0000 0.0065 -0.0000
vn 0.9985 -0.0549 -0.0000
vn 0.9998 -0.0003 0.0220
vn 0.9993 0.0366 0.0023
vn 0.9985 0.0549 0.0003
vn -1.0000 -0.0065 -0.0000
vn 0.9993 0.0366 -0.0024
vn -1.0000 -0.0000 0.0071
vn 0.9997 -0.0001 -0.0225
vn 0.9985 0.0549 -0.0003
vn -1.0000 -0.0000 -0.0069
vn -0.0554 -0.0032 -0.9985
vn 0.0334 -0.0060 0.9994
vn -0.0000 -1.0000 0.0001
vn -0.0000 -1.0000 -0.0001
vn -0.0000 1.0000 -0.0050
vn -0.0000 1.0000 0.0049
vn 0.0030 1.0000 -0.0000
vn 0.0032 1.0000 -0.0000
vn 0.1435 -0.0000 0.9896
vn -0.0000 1.0000 -0.0002
vn -0.0362 0.0060 -0.9993
vn -0.8878 0.4602 -0.0000
vn -0.8878 -0.0000 -0.4602
vn -0.8878 -0.4602 -0.0000
vn -0.8220 -0.5693 0.0161
vn -0.8220 0.5693 0.0161
vn -0.8878 -0.0000 0.4602
vn 0.0025 0.0090 -1.0000
vn -0.7350 -0.0000 0.6781
vn 0.0025 -0.0005 -1.0000
vt 0.009711 0.040874
vt 0.582292 0.008164
vt 0.085780 0.730830
vt 0.555375 0.679276
vt 0.061905 0.374013
vt 0.028855 0.211577
vt 0.586871 0.185795
vt 0.563456 0.367971
vt 0.708690 0.000164
vt 0.045262 0.573599
vt 0.074448 0.418309
vt 0.541542 0.409947
vt 0.750396 0.713906
vt 0.559022 0.551437
vt 0.720920 0.011990
vt 0.057931 0.562313
vt 0.083312 0.426373
vt 0.525553 0.413251
vt 0.541444 0.542841
vt 0.761629 0.687190
vt 0.734979 0.690653
vt 0.542236 0.560964
vt 0.541382 0.676311
vt 0.094761 0.722893
vt 0.058592 0.583462
vt 0.698337 0.013259
vt 0.754041 0.009609
vt 0.082913 0.562056
vt 0.861763 0.000163
vt 0.099728 0.443392
vt 0.512071 0.430820
vt 0.999748 0.484884
vt 0.861810 0.484884
vt 0.519240 0.544043
vt 0.786278 0.686164
vt 0.705316 0.695081
vt 0.999563 0.969992
vt 0.520250 0.562211
vt 0.861763 0.969992
vt 0.524035 0.665082
vt 0.104978 0.702298
vt 0.083772 0.581547
vt 0.999563 0.485211
vt 0.671330 0.014013
vt 0.476434 0.009199
vt 0.478735 0.715284
vt 0.453091 0.401577
vt 0.736811 0.574678
vt 0.477654 0.181595
vt 0.463618 0.345962
vt 0.452724 0.405825
vt 0.751441 0.572502
vt 0.476469 0.707451
vt 0.722487 0.574806
vt 0.450150 0.424919
vt 0.999748 0.404750
vt 0.861810 0.404750
vt 0.787027 0.590245
vt 0.861763 0.889792
vt 0.469113 0.684944
vt 0.999563 0.889792
vt 0.690679 0.597026
vt 0.093762 0.732767
vt 0.709395 0.012774
vt 0.034283 0.210791
vt 0.066611 0.372970
vt 0.094813 0.722907
vt 0.999837 0.000163
vt 0.100376 0.442115
vt 0.105020 0.702303
vt 0.861763 0.485211
vt 0.015101 0.040216
vt 0.015057 0.097796
vt 0.556781 0.637299
vt 0.585718 0.066171
vt 0.063042 0.679283
vt 0.542459 0.636952
vt 0.073420 0.676188
vt 0.909114 0.969992
vt 0.523420 0.636374
vt 0.097836 0.668636
vt 0.909114 0.485211
vt 0.909114 0.889792
vt 0.599952 0.540550
vt 0.484102 0.060462
vt 0.020570 0.097203
vt 0.047213 0.319479
vt 0.578941 0.305078
vt 0.056185 0.472018
vt 0.553607 0.459438
vt 0.066591 0.472313
vt 0.537308 0.459918
vt 0.086034 0.477230
vt 0.951483 0.000195
vt 0.514449 0.463784
vt 0.951483 0.484884
vt 0.951483 0.404750
vt 0.861436 0.526669
vt 0.470945 0.287703
vt 0.052426 0.318349
vt 0.232875 0.018303
vt 0.273958 0.743668
vt 0.255149 0.391682
vt 0.724720 0.289643
vt 0.241692 0.184825
vt 0.251386 0.341412
vt 0.255407 0.396483
vt 0.739900 0.289772
vt 0.273579 0.734357
vt 0.710378 0.291460
vt 0.999748 0.190570
vt 0.256478 0.415887
vt 0.861810 0.190570
vt 0.772731 0.269543
vt 0.272658 0.710927
vt 0.861763 0.675615
vt 0.999563 0.675615
vt 0.674146 0.272355
vt 0.237351 0.076502
vt 0.909114 0.675615
vt 0.595645 0.338552
vt 0.248280 0.286577
vt 0.951483 0.190570
vt 0.861436 0.326257
vt 0.617952 0.349361
vt 0.835049 0.341244
vt 0.839779 0.516054
vt 0.626899 0.527524
vt 0.725171 0.559626
vt 0.724853 0.533742
vt 0.746796 0.558209
vt 0.744045 0.532460
vt 0.810138 0.496272
vt 0.735790 0.559190
vt 0.463084 0.081676
vt 0.663223 0.497533
vt 0.464342 0.181285
vt 0.733625 0.519669
vt 0.651369 0.505434
vt 0.458856 0.276055
vt 0.797779 0.490142
vt 0.250782 0.088325
vt 0.661013 0.377319
vt 0.651022 0.370831
vt 0.259976 0.275367
vt 0.797209 0.367247
vt 0.807176 0.360173
vt 0.254415 0.184198
vt 0.727234 0.346940
vt 0.716952 0.333563
vt 0.725616 0.305486
vt 0.737106 0.304955
vt 0.736793 0.333001
vt 0.714748 0.306320
vt 0.630033 0.356271
vt 0.823509 0.348602
vt 0.831180 0.510719
vt 0.634900 0.521275
vt 0.734360 0.534393
vt 0.726624 0.331640
vt 0.021560 0.697360
vt 0.007113 0.098640
vt 0.063922 0.762787
vt 0.001330 0.034354
vt 0.495155 0.754200
vt 0.476257 0.001173
vt 0.581185 0.697328
vt 0.589724 0.000164
vt 0.010780 0.453420
vt 0.039656 0.321168
vt 0.000164 0.575788
vt 0.021042 0.212717
vt 0.593272 0.642009
vt 0.593950 0.065877
vt 0.595318 0.550351
vt 0.595318 0.186034
vt 0.593366 0.450726
vt 0.587557 0.306465
vt 0.570572 0.379009
vt 0.056107 0.383685
vt 0.274850 0.782304
vt 0.232324 0.010365
vt 0.476321 0.068660
vt 0.485571 0.181799
vt 0.075476 0.768957
vt 0.014051 0.032258
vt 0.477837 0.294967
vt 0.229480 0.069173
vt 0.241503 0.293851
vt 0.234137 0.185221
vt 0.539806 0.405208
vt 0.082803 0.421077
vt 0.453608 0.396281
vt 0.462452 0.354398
vt 0.068066 0.380888
vt 0.254858 0.387045
vt 0.251969 0.349333
vt 0.082309 0.416666
s 0
usemtl Material.017
f 43/63/1 3/3/1 19/24/1 47/67/1
f 30/46/2 4/4/2 124/167/2 123/165/2
f 121/161/3 54/76/3 3/3/3 122/163/3
f 52/74/4 127/173/4 124/167/4 4/4/4
f 65/90/4 129/177/4 128/175/4 12/14/4
f 125/169/3 64/89/3 9/10/3 126/171/3
f 65/90/1 12/14/1 16/19/1 67/92/1
f 60/85/5 53/75/5 7/7/5 134/184/5
f 136/187/5 63/88/5 8/8/5 34/50/5
f 55/77/3 18/23/3 26/40/3 57/80/3
f 66/91/4 14/17/4 22/30/4 68/93/4
f 31/47/1 11/12/1 15/18/1 35/51/1
f 64/89/1 10/11/1 14/17/1 66/91/1
f 44/64/1 9/9/1 13/15/1
f 54/76/1 9/10/1 20/25/1 56/78/1
f 52/74/1 4/4/1 18/23/1 55/77/1
f 32/48/1 12/13/1 17/21/1 38/54/1
f 70/97/1 69/96/1 24/33/1 40/57/1
f 59/83/1 57/79/1 26/39/1 41/59/1
f 67/92/3 16/19/3 24/34/3 69/95/3
f 47/67/2 19/24/2 27/41/2 49/70/2
f 35/51/2 15/18/2 23/31/2 39/55/2
f 56/78/6 20/25/6 28/42/6 58/81/6
f 38/54/2 17/21/2 25/36/2 42/62/2
f 16/20/7 36/52/7 40/58/7 24/35/7
f 79/107/2 35/51/2 39/55/2 83/112/2
f 18/23/7 37/53/7 41/60/7 26/40/7
f 88/120/1 59/83/1 41/59/1 85/116/1
f 12/13/1 32/48/1 36/52/1 16/20/1
f 75/103/1 31/47/1 35/51/1 79/107/1
f 138/189/5 136/187/5 34/50/5 78/106/5
f 74/102/2 30/46/2 123/165/2 132/181/2
f 4/4/1 30/46/1 37/53/1 18/23/1
f 3/3/2 43/63/2 135/185/2 122/163/2
f 51/73/5 61/86/5 45/65/5 6/6/5
f 62/87/5 72/100/5 46/66/5 5/5/5
f 9/9/1 44/64/1 20/26/1
f 58/81/5 49/70/5 27/41/5
f 14/17/8 48/69/8 22/30/8
f 80/108/7 13/15/7 21/27/7 84/114/7
f 81/109/7 47/67/7 49/70/7 85/115/7
f 76/104/1 44/64/1 13/15/1 80/108/1
f 74/102/1 43/63/1 47/67/1 81/109/1
f 1/1/5 50/72/5 61/86/5 51/73/5
f 73/101/5 29/45/5 60/85/5 137/188/5
f 19/24/9 56/78/9 58/81/9 27/41/9
f 42/61/1 25/37/1 57/79/1 59/83/1
f 12/14/1 52/74/1 55/77/1 17/22/1
f 3/3/1 54/76/1 56/78/1 19/24/1
f 17/22/3 55/77/3 57/80/3 25/38/3
f 29/45/5 2/2/5 53/75/5 60/85/5
f 12/14/4 128/175/4 127/173/4 52/74/4
f 126/171/3 9/10/3 54/76/3 121/161/3
f 22/30/10 48/69/10 68/93/10
f 6/6/5 45/65/5 72/100/5 62/87/5
f 83/111/1 39/56/1 70/97/1 90/123/1
f 15/18/3 67/92/3 69/95/3 23/31/3
f 39/56/1 23/32/1 69/96/1 70/97/1
f 9/10/1 64/89/1 66/91/1 13/16/1
f 13/16/11 66/91/11 68/93/11 21/28/11
f 134/184/5 7/7/5 63/88/5 136/187/5
f 11/12/1 65/90/1 67/92/1 15/18/1
f 131/180/3 10/11/3 64/89/3 125/169/3
f 11/12/4 130/179/4 129/177/4 65/90/4
f 48/68/12 83/111/12 90/123/12 68/94/12
f 45/65/5 139/190/5 138/189/5 72/100/5
f 28/43/1 86/117/1 88/120/1 58/82/1
f 50/72/5 73/101/5 137/188/5 61/86/5
f 30/46/1 74/102/1 81/109/1 37/53/1
f 37/53/7 81/109/7 85/115/7 41/60/7
f 43/63/2 74/102/2 132/181/2 135/185/2
f 61/86/5 137/188/5 139/190/5 45/65/5
f 72/100/5 138/189/5 78/106/5 46/66/5
f 44/64/1 76/104/1 82/110/1 20/26/1
f 68/94/13 90/123/13 84/113/13 21/29/13
f 58/82/1 88/120/1 85/116/1 49/71/1
f 14/17/2 79/107/2 83/112/2 48/69/2
f 20/26/2 82/110/2 86/118/2 28/44/2
f 88/121/14 91/125/14 94/128/14 59/84/14
f 38/54/4 42/62/4 59/84/4 94/128/4
f 94/128/15 118/158/15 95/129/15 38/54/15
f 36/52/16 97/131/16 117/157/16 93/127/16
f 89/122/17 77/105/17 109/148/17 107/145/17
f 36/52/18 32/48/18 100/134/18 97/131/18
f 93/127/19 117/157/19 116/156/19 92/126/19
f 92/126/20 116/156/20 112/152/20 80/108/20
f 32/48/18 38/54/18 95/129/18 100/134/18
f 82/110/21 76/104/21 111/151/21 114/154/21
f 33/49/22 71/99/22 104/140/22 102/137/22
f 82/110/23 114/154/23 115/155/23 91/125/23
f 71/99/24 89/122/24 107/145/24 104/140/24
f 77/105/17 87/119/17 105/142/17 109/148/17
f 91/125/25 115/155/25 118/158/25 94/128/25
f 133/183/22 33/49/22 102/137/22 101/135/22
f 76/104/26 80/108/26 112/152/26 111/151/26
f 87/119/27 133/183/27 101/135/27 105/142/27
f 106/144/4 115/155/4 114/154/4 110/150/4
f 116/156/4 108/147/4 113/153/4 112/152/4
f 117/157/3 97/131/3 98/132/3 99/133/3
f 106/144/28 103/139/28 118/158/28 115/155/28
f 99/133/29 108/147/29 116/156/29 117/157/29
f 95/129/3 118/158/3 103/139/3 96/130/3
f 100/134/30 95/129/30 96/130/30 119/159/30
f 97/131/31 100/134/31 119/159/31 98/132/31
f 120/160/32 111/151/32 112/152/32 113/153/32
f 111/151/33 120/160/33 110/150/33 114/154/33
f 103/139/7 106/144/7 105/143/7 101/136/7
f 103/139/3 101/136/3 102/138/3 96/130/3
f 110/150/34 109/149/34 105/143/34 106/144/34
f 107/146/35 109/149/35 113/153/35 108/147/35
f 99/133/36 104/141/36 107/146/36 108/147/36
f 104/141/3 99/133/3 98/132/3 102/138/3
f 96/130/3 102/138/3 98/132/3 119/159/3
f 113/153/37 109/149/37 110/150/37 120/160/37
f 88/121/3 86/118/3 82/110/3 91/125/3
f 80/108/3 84/114/3 90/124/3 92/126/3
f 70/98/38 93/127/38 92/126/38 90/124/38
f 36/52/4 93/127/4 70/98/4 40/58/4
f 1/1/39 51/73/39 121/162/39 122/164/39
f 2/2/40 29/45/40 123/166/40 124/168/40
f 6/6/39 62/87/39 125/170/39 126/172/39
f 7/7/41 53/75/41 127/174/41 128/176/41
f 8/8/42 63/88/42 129/178/42 130/179/42
f 29/45/40 73/101/40 132/182/40 123/166/40
f 60/85/39 134/184/39 33/49/39 133/183/39
f 50/72/40 1/1/40 122/164/40 135/186/40
f 51/73/39 6/6/39 126/172/39 121/162/39
f 53/75/41 2/2/41 124/168/41 127/174/41
f 62/87/43 5/5/43 131/180/43 125/170/43
f 63/88/41 7/7/41 128/176/41 129/178/41
f 134/184/39 136/187/39 71/99/39 33/49/39
f 73/101/40 50/72/40 135/186/40 132/182/40
f 137/188/44 60/85/44 133/183/44 87/119/44
f 136/187/40 138/189/40 89/122/40 71/99/40
f 138/189/41 139/190/41 77/105/41 89/122/41
f 139/190/41 137/188/41 87/119/41 77/105/41
f 142/193/7 143/194/7 130/179/7 140/191/7
f 131/180/45 144/195/45 147/198/45 10/11/45
f 14/17/1 141/192/1 75/103/1 79/107/1
f 34/50/46 8/8/46 130/179/46 143/194/46
f 10/11/1 147/198/1 141/192/1 14/17/1
f 31/47/1 75/103/1 145/196/1 142/193/1
f 78/106/46 34/50/46 143/194/46 146/197/46
f 46/66/46 78/106/46 146/197/46 144/195/46
f 5/5/46 46/66/46 144/195/46 131/180/46
f 130/179/4 11/12/4 140/191/4
f 11/12/1 31/47/1 142/193/1 140/191/1
f 145/196/7 146/197/7 143/194/7 142/193/7
f 141/192/1 147/198/1 145/196/1 75/103/1
f 146/197/47 145/196/47 147/198/47 144/195/47
