# Blender 3.4.1
# www.blender.org
mtllib Bowlder1.mtl
o Bowlder1
v -2.112178 -0.030287 1.130703
v -1.935585 1.170332 0.971104
v -1.898783 0.058826 -0.314763
v -1.555112 1.368661 0.027731
v 2.942261 -0.029883 1.194967
v 2.463525 1.287317 1.176701
v 2.348432 0.065250 -0.504890
v 1.938225 1.465094 0.022779
v 1.374638 -0.067162 -0.632672
v 0.282463 0.092214 -0.599984
v -1.085879 -0.069756 -0.505782
v -1.154766 1.537298 -0.022124
v 0.260064 1.322946 -0.191967
v 1.304136 1.739565 -0.024076
v -1.482355 -0.114002 1.201358
v 0.312827 0.081942 1.095708
v 1.686408 -0.047407 1.295775
v 1.671444 1.532349 1.178589
v 0.296610 1.148496 1.073482
v -1.435628 1.154386 1.132537
v -2.161235 0.361748 1.192115
v -2.168462 0.766611 1.171423
v -2.025333 0.723911 -0.361695
v -1.981136 0.314165 -0.413891
v 2.366935 0.844298 -0.503467
v 2.393098 0.410081 -0.601677
v 2.961485 0.880765 1.241343
v 2.971471 0.392902 1.268843
v 1.690674 1.133565 1.454253
v 1.639978 0.579851 1.293202
v 0.306955 0.828775 1.212907
v 0.309860 0.478224 1.250326
v -1.455595 0.781984 1.259469
v -1.461399 0.354739 1.275033
v -1.039212 0.697546 -0.627977
v -1.029013 0.287081 -0.666749
v 0.266670 0.668763 -0.690372
v 0.273254 0.370964 -0.722020
v 1.272357 0.741718 -0.733657
v 1.294904 0.294075 -0.781323
v -2.394473 -0.010458 0.375101
v -2.631813 -0.018012 0.804180
v -1.957270 1.337063 0.610942
v -1.832759 1.405549 0.398446
v 2.938261 -0.059288 0.938454
v 2.762058 -0.029292 0.435788
v 2.081716 1.512545 0.557330
v 2.355285 1.518663 0.898350
v 1.397220 1.976058 0.253314
v 1.516851 1.973488 0.733996
v 0.266511 1.467923 0.329453
v 0.279355 1.438947 0.682244
v -1.257349 1.671052 0.494674
v -1.348080 1.580249 0.727070
v -1.307130 -0.246162 0.447408
v -1.429696 -0.247615 0.804238
v 0.299478 -0.041551 0.279190
v 0.307649 -0.034486 0.762092
v 1.578198 -0.239230 0.447522
v 1.668962 -0.223116 0.914978
v 2.577407 0.338139 0.333768
v 3.001157 0.350391 0.880821
v 2.526501 0.823146 0.318047
v 2.967321 0.842127 0.859026
v -2.758934 0.407122 0.722219
v -2.349852 0.397569 0.317939
v -2.749762 0.801353 0.679475
v -2.335853 0.809080 0.298395
v -0.408264 0.052326 -0.763578
v -0.450894 1.377548 -0.347173
v -0.579235 0.026866 1.100218
v -0.564987 1.117265 1.057700
v -0.386008 0.349140 -0.895738
v -0.393846 0.679893 -0.862852
v -0.570835 0.430825 1.097262
v -0.569481 0.794049 1.182087
v -0.503640 -0.092522 0.366822
v -0.557062 -0.089901 0.758970
v -0.495789 1.507713 0.412368
v -0.532161 1.451778 0.685645
vn -0.6196 0.6559 -0.4312
vn 0.1838 0.6246 -0.7590
vn 0.6937 0.7132 0.1005
vn -0.1815 0.4317 0.8836
vn 0.0775 -0.9498 0.3031
vn -0.2992 0.7669 0.5678
vn 0.2627 0.7523 0.6042
vn -0.2832 0.6921 0.6640
vn 0.1173 0.7009 0.7036
vn -0.1724 -0.9473 0.2701
vn 0.0596 -0.9430 0.3274
vn -0.1549 -0.9127 0.3781
vn 0.2065 0.4904 0.8467
vn -0.2263 0.4803 0.8474
vn 0.0861 0.3359 0.9380
vn -0.2372 0.5794 -0.7797
vn 0.2139 0.5926 -0.7766
vn -0.0918 0.5887 -0.8031
vn -0.0842 -0.3981 -0.9135
vn -0.0501 0.1037 -0.9933
vn 0.2395 -0.3968 -0.8861
vn 0.2515 0.1046 -0.9622
vn -0.2568 -0.3870 -0.8856
vn -0.2554 0.0898 -0.9627
vn 0.1631 -0.0851 0.9829
vn 0.1459 -0.0877 0.9854
vn -0.0900 -0.1506 0.9845
vn -0.0839 -0.1306 0.9879
vn 0.0438 -0.0670 0.9968
vn 0.0683 -0.1295 0.9892
vn -0.1239 -0.1578 0.9797
vn -0.1203 0.0430 0.9918
vn 0.9925 -0.1108 0.0519
vn 0.9981 0.0467 0.0411
vn 0.1762 -0.3154 -0.9325
vn 0.1647 0.1698 -0.9716
vn -0.8430 -0.1683 -0.5109
vn -0.8993 -0.0157 -0.4370
vn -0.6283 0.0631 0.7754
vn -0.6900 -0.0360 -0.7229
vn -0.5808 -0.1049 0.8072
vn -0.7778 -0.1777 -0.6029
vn 0.9776 0.0987 -0.1861
vn 0.7816 0.0439 -0.6223
vn 0.9502 0.1048 -0.2935
vn 0.8679 0.0342 -0.4955
vn -0.1398 -0.9806 -0.1373
vn -0.1494 -0.9880 0.0396
vn 0.0670 -0.9887 -0.1345
vn 0.0644 -0.9978 0.0144
vn -0.1970 -0.9534 -0.2285
vn -0.1951 -0.9756 -0.1005
vn 0.1633 0.9697 -0.1816
vn 0.1965 0.9273 0.3185
vn -0.3507 0.8613 -0.3676
vn -0.4002 0.9112 0.0981
vn 0.5260 0.7434 -0.4132
vn 0.5567 0.7857 -0.2698
vn -0.3713 0.8693 -0.3262
vn -0.4103 0.9033 0.1249
vn 0.1635 -0.9704 -0.1780
vn 0.1507 -0.9870 -0.0556
vn 0.7653 0.6171 -0.1830
vn 0.6211 0.5866 -0.5198
vn -0.5001 0.6940 0.5180
vn -0.5840 0.6806 -0.4424
vn 0.0405 0.9899 0.1358
vn 0.0727 0.9756 -0.2074
vn 0.1857 -0.9816 0.0452
vn 0.1532 -0.9799 -0.1278
vn -0.1008 -0.0662 0.9927
vn -0.0714 -0.1853 0.9801
vn -0.3401 0.0823 -0.9368
vn -0.2767 -0.3651 -0.8889
vn -0.2572 0.5505 -0.7942
vn -0.0392 0.3790 0.9246
vn 0.1830 -0.9253 0.3323
vn -0.0132 0.7738 0.6333
vt 0.000272 0.587508
vt 0.080175 0.897494
vt 0.553302 0.000087
vt 0.227832 0.999913
vt 0.612012 0.988666
vt 0.750940 0.143900
vt 0.456095 0.260476
vt 0.104619 0.351073
vt 0.725104 0.310613
vt 0.709121 0.829519
vt 0.195216 0.702551
vt 0.337519 0.786526
vt 0.325656 0.481513
vt 0.499054 0.697330
vt 0.358266 0.426253
vt 0.270396 0.448903
vt 0.382955 0.384416
vt 0.228559 0.424213
vt 0.159878 0.383683
vt 0.423485 0.315735
vt 0.658756 0.801280
vt 0.760054 0.487516
vt 0.693985 0.565250
vt 0.589980 0.761276
vt 0.696423 0.647465
vt 0.547102 0.735825
vt 0.097387 0.868327
vt 0.029438 0.604720
vt 0.098119 0.645251
vt 0.137917 0.799647
vt 0.139957 0.669940
vt 0.162606 0.757809
vt 0.406627 0.937498
vt 0.309340 0.834277
vt 0.280220 0.883623
vt 0.474525 0.977048
vt 0.548091 0.999913
vt 0.239689 0.952304
vt 0.153854 0.940974
vt 0.649717 0.055751
vt 0.190092 0.962359
vt 0.711358 0.097026
vt 0.580395 0.326590
vt 0.529774 0.303956
vt 0.443619 0.558365
vt 0.399335 0.524993
vt 0.305134 0.767415
vt 0.268895 0.746030
vt 0.276159 0.816514
vt 0.236285 0.801288
vt 0.247834 0.864512
vt 0.211596 0.843127
vt 0.207304 0.933193
vt 0.171066 0.911807
vt 0.551693 0.390349
vt 0.497164 0.359215
vt 0.507661 0.457842
vt 0.456634 0.427896
vt 0.483915 0.500527
vt 0.431944 0.469734
vt 0.524894 0.143893
vt 0.035820 0.467657
vt 0.560626 0.083342
vt 0.000087 0.528208
vt 0.662816 0.926052
vt 0.751005 0.208699
vt 0.684154 0.884988
vt 0.745337 0.249300
vt 0.221124 0.658648
vt 0.256857 0.598097
vt 0.455573 0.741154
vt 0.405978 0.774768
vt 0.511853 0.790726
vt 0.468480 0.852910
vt 0.557714 0.818361
vt 0.521327 0.885663
vt 0.626764 0.856858
vt 0.591021 0.920627
vt 0.091079 0.500267
vt 0.055346 0.560818
vt 0.159760 0.540797
vt 0.124027 0.601348
vt 0.201598 0.565486
vt 0.165865 0.626038
vt 0.330536 0.641576
vt 0.294803 0.702127
vt 0.375050 0.669490
vt 0.335645 0.726678
vt 0.634305 0.126821
vt 0.598573 0.187373
vt 0.675540 0.150706
vt 0.644526 0.212846
vt 0.194218 0.403948
vt 0.403220 0.350076
vt 0.624368 0.781278
vt 0.727019 0.526383
vt 0.117652 0.833987
vt 0.063779 0.624986
vt 0.259955 0.917964
vt 0.511308 0.988480
vt 0.476899 0.393555
vt 0.529677 0.424096
vt 0.191331 0.877467
vt 0.227569 0.898853
vt 0.125419 0.520532
vt 0.089687 0.581083
vt 0.592239 0.837609
vt 0.556174 0.903145
s 0
usemtl Material.008
f 68/92/1 44/68/1 4/9/1 23/43/1
f 39/59/2 14/25/2 8/14/2 25/45/2
f 64/88/3 48/72/3 6/12/3 27/47/3
f 33/53/4 20/38/4 2/4/4 22/41/4
f 60/84/5 45/69/5 5/11/5 17/31/5
f 54/78/6 43/65/6 2/5/6 20/37/6
f 48/72/7 50/74/7 18/33/7 6/12/7
f 50/74/8 52/76/8 19/36/8 18/33/8
f 80/108/9 54/78/9 20/37/9 72/100/9
f 42/64/10 56/80/10 15/28/10 1/1/10
f 78/106/11 58/82/11 16/29/11 71/98/11
f 58/82/12 60/84/12 17/31/12 16/29/12
f 27/47/13 6/12/13 18/34/13 29/49/13
f 29/49/14 18/34/14 19/35/14 31/51/14
f 76/104/15 72/99/15 20/38/15 33/53/15
f 23/43/16 4/9/16 12/22/16 35/55/16
f 74/102/17 70/96/17 13/23/17 37/57/17
f 37/57/18 13/23/18 14/25/18 39/59/18
f 10/17/19 38/58/19 40/60/19 9/15/19
f 38/58/20 37/57/20 39/59/20 40/60/20
f 69/94/21 73/101/21 38/58/21 10/17/21
f 73/101/22 74/102/22 37/57/22 38/58/22
f 3/7/23 24/44/23 36/56/23 11/20/23
f 24/44/24 23/43/24 35/55/24 36/56/24
f 71/97/25 75/103/25 34/54/25 15/27/25
f 75/103/26 76/104/26 33/53/26 34/54/26
f 17/32/27 30/50/27 32/52/27 16/30/27
f 30/50/28 29/49/28 31/51/28 32/52/28
f 5/11/29 28/48/29 30/50/29 17/32/29
f 28/48/30 27/47/30 29/49/30 30/50/30
f 15/27/31 34/54/31 21/39/31 1/2/31
f 34/54/32 33/53/32 22/41/32 21/39/32
f 45/69/33 62/86/33 28/48/33 5/11/33
f 62/86/34 64/88/34 27/47/34 28/48/34
f 9/15/35 40/60/35 26/46/35 7/13/35
f 40/60/36 39/59/36 25/45/36 26/46/36
f 41/61/37 66/90/37 24/44/37 3/7/37
f 66/90/38 68/92/38 23/43/38 24/44/38
f 21/40/39 22/42/39 67/91/39 65/89/39
f 65/89/40 67/91/40 68/92/40 66/90/40
f 1/3/41 21/40/41 65/89/41 42/63/41
f 42/63/42 65/89/42 66/90/42 41/61/42
f 26/46/43 25/45/43 63/87/43 61/85/43
f 61/85/44 63/87/44 64/88/44 62/86/44
f 7/13/45 26/46/45 61/85/45 46/70/45
f 46/70/46 61/85/46 62/86/46 45/69/46
f 10/18/47 9/16/47 59/83/47 57/81/47
f 57/81/48 59/83/48 60/84/48 58/82/48
f 69/93/49 10/18/49 57/81/49 77/105/49
f 77/105/50 57/81/50 58/82/50 78/106/50
f 3/8/51 11/19/51 55/79/51 41/62/51
f 41/62/52 55/79/52 56/80/52 42/64/52
f 70/95/53 12/21/53 53/77/53 79/107/53
f 79/107/54 53/77/54 54/78/54 80/108/54
f 14/26/55 13/24/55 51/75/55 49/73/55
f 49/73/56 51/75/56 52/76/56 50/74/56
f 8/14/57 14/26/57 49/73/57 47/71/57
f 47/71/58 49/73/58 50/74/58 48/72/58
f 12/21/59 4/10/59 44/67/59 53/77/59
f 53/77/60 44/67/60 43/65/60 54/78/60
f 9/16/61 7/13/61 46/70/61 59/83/61
f 59/83/62 46/70/62 45/69/62 60/84/62
f 25/45/63 8/14/63 47/71/63 63/87/63
f 63/87/64 47/71/64 48/72/64 64/88/64
f 22/42/65 2/6/65 43/66/65 67/91/65
f 67/91/66 43/66/66 44/68/66 68/92/66
f 51/75/67 79/107/67 80/108/67 52/76/67
f 13/24/68 70/95/68 79/107/68 51/75/68
f 55/79/69 77/105/69 78/106/69 56/80/69
f 11/19/70 69/93/70 77/105/70 55/79/70
f 32/52/71 31/51/71 76/104/71 75/103/71
f 16/30/72 32/52/72 75/103/72 71/97/72
f 36/56/73 35/55/73 74/102/73 73/101/73
f 11/20/74 36/56/74 73/101/74 69/94/74
f 35/55/75 12/22/75 70/96/75 74/102/75
f 31/51/76 19/35/76 72/99/76 76/104/76
f 56/80/77 78/106/77 71/98/77 15/28/77
f 52/76/78 80/108/78 72/100/78 19/36/78
