# Blender 3.4.1
# www.blender.org
mtllib WindowWall.mtl
o WindowWall
v -0.087772 0.018188 2.302078
v -0.087772 3.006151 2.302078
v -0.087772 0.018188 -2.302078
v -0.087772 3.006151 -2.302078
v 0.117410 -0.018538 2.338804
v 0.117410 3.042877 2.338804
v 0.117410 -0.018538 -2.338804
v 0.117410 3.042877 -2.338804
v -0.087772 0.018188 -1.403283
v -0.087772 0.018188 -0.496727
v -0.087772 0.018188 0.496157
v -0.087772 0.018188 1.403283
v -0.087772 3.006151 1.403283
v -0.087772 3.006151 0.496156
v -0.087772 3.006151 -0.496728
v -0.087772 3.006151 -1.403283
v 0.117410 -0.018538 1.403283
v 0.117410 -0.018538 0.496156
v 0.117410 -0.018538 -0.496728
v 0.117410 -0.018538 -1.403283
v 0.117410 3.042877 -1.403283
v 0.117410 3.042877 -0.496728
v 0.117410 3.042877 0.496157
v 0.117410 3.042877 1.403283
v 0.107871 0.056695 0.455822
v 0.107871 0.056732 -0.456393
v 0.107871 2.455602 0.455822
v 0.107871 2.455678 -0.456393
v 0.117410 2.933820 -2.276187
v 0.117410 0.046827 -2.276187
v 0.117410 0.046827 -1.465900
v 0.117410 2.933820 -1.465900
v 0.117410 0.046844 -0.540179
v 0.117410 0.046844 -1.335974
v 0.117410 2.934005 -1.335974
v 0.117410 2.934005 -0.540178
v 0.117410 0.046446 1.343325
v 0.117410 0.046764 0.534862
v 0.117410 2.933099 0.534862
v 0.117410 2.933099 1.343325
v 0.117410 2.933495 1.460722
v 0.117410 2.933495 2.281365
v 0.117410 0.046799 2.281365
v 0.117410 0.046479 1.460722
v -0.027077 2.933820 -2.276187
v -0.027077 0.046827 -2.276187
v -0.027077 0.046827 -1.465900
v -0.027077 2.933820 -1.465900
v -0.027077 0.046844 -0.540179
v -0.027077 0.046844 -1.335974
v -0.027077 2.934005 -1.335974
v -0.027077 2.934005 -0.540178
v -0.027077 0.046446 1.343325
v -0.027077 0.046764 0.534862
v -0.027077 2.933099 0.534862
v -0.027077 2.933099 1.343325
v -0.027077 2.933495 1.460722
v -0.027077 2.933495 2.281365
v -0.027077 0.046799 2.281365
v -0.027077 0.046479 1.460722
v 0.107419 2.954709 0.453911
v 0.107419 2.954709 -0.454482
v -0.087772 2.456080 -2.302078
v 0.117410 2.456080 -2.338804
v 0.117410 2.456080 -1.403283
v 0.117410 2.456080 -0.496728
v -0.087772 2.456080 -0.496728
v -0.087772 2.456080 -1.403283
v 0.117410 2.456062 -2.276187
v 0.117410 2.456062 -1.465900
v 0.117410 2.456063 -1.335974
v 0.117410 2.456063 -0.540178
v -0.027077 2.456062 -2.276187
v -0.027077 2.456062 -1.465900
v -0.027077 2.456063 -1.335974
v -0.027077 2.456063 -0.540178
v -0.087772 2.455876 2.302078
v 0.117410 2.455876 2.338804
v 0.117410 2.455876 0.496157
v 0.117410 2.455876 1.403283
v -0.106809 2.455876 1.403283
v -0.087772 2.455876 0.496156
v 0.117410 2.455881 0.534862
v 0.117410 2.455881 1.343325
v 0.117410 2.455880 2.281365
v 0.117410 2.455880 1.460722
v -0.027077 2.455881 0.534862
v -0.027077 2.455881 1.343325
v -0.027077 2.455880 2.281365
v -0.027077 2.455880 1.460722
v -0.087772 0.047050 -2.302078
v 0.117410 0.047050 -2.338804
v 0.117410 0.047050 -1.403283
v 0.117410 0.047050 -0.496728
v -0.087772 0.047050 -0.496727
v -0.087772 0.047050 -1.403283
v 0.117410 0.046545 -2.276187
v 0.117410 0.046545 -1.465900
v 0.117410 0.046561 -1.335974
v 0.117410 0.046561 -0.540179
v -0.027077 0.046545 -2.276187
v -0.027077 0.046545 -1.465900
v -0.027077 0.046561 -1.335974
v -0.027077 0.046561 -0.540179
v 0.117410 0.047010 2.338805
v 0.117410 0.047010 0.496156
v 0.117410 0.047010 1.403283
v -0.087772 0.047010 1.403283
v -0.087772 0.047010 0.496157
v 0.117410 0.046446 0.534862
v 0.117410 0.046479 2.281365
v -0.027077 0.046446 0.534862
v -0.027077 0.046479 2.281365
v -0.087772 0.047010 2.302078
v -0.018186 0.056695 0.455822
v -0.018186 0.056732 -0.456393
v -0.018186 2.455602 0.455822
v -0.018186 2.455678 -0.456393
v -0.018638 2.954709 0.453911
v -0.018638 2.954709 -0.454482
v -0.087772 0.018188 1.999372
v 0.117410 3.042877 1.999372
v -0.087772 3.006151 1.999372
v 0.117410 -0.018538 1.999372
v 0.117410 2.933495 1.999372
v 0.117410 0.046799 1.999372
v -0.027077 2.933495 1.999372
v -0.027077 0.046479 1.999372
v -0.027077 2.455880 1.999372
v -0.087772 2.492603 2.036098
v -0.087772 0.047010 1.999372
v -0.087772 0.018188 0.822863
v -0.087772 3.006151 0.822863
v 0.117410 -0.018538 0.822863
v 0.117410 3.042877 0.822863
v 0.117410 0.046764 0.809294
v 0.117410 2.933099 0.809294
v -0.009664 0.046765 0.809294
v -0.027077 2.933099 0.809294
v -0.027077 2.455881 0.809294
v -0.106809 2.455876 0.822863
v -0.087772 0.047010 0.822863
v -0.087772 1.180670 2.302078
v -0.087772 1.180787 -2.302078
v 0.117410 1.180787 -2.338804
v 0.117410 1.180787 -1.403283
v 0.117410 1.180787 -0.496728
v -0.087772 1.180787 -0.496728
v -0.087772 1.180787 -1.403283
v 0.117410 1.180511 -2.276187
v 0.117410 1.180511 -1.465900
v 0.117410 1.180520 -1.335974
v 0.117410 1.180520 -0.540179
v -0.027077 1.180511 -2.276187
v -0.027077 1.180511 -1.465900
v -0.027077 1.180520 -1.335974
v -0.027077 1.180520 -0.540179
v 0.117410 1.180670 2.338805
v 0.117410 1.180670 0.496156
v 0.117410 1.180670 1.403283
v -0.106809 1.180670 1.403283
v -0.087772 1.180670 0.496156
v 0.117410 1.180373 0.534862
v 0.117410 1.180373 1.343325
v 0.117410 1.180391 2.281365
v 0.117410 1.180391 1.460722
v -0.027077 1.180373 0.534862
v -0.027077 1.180373 1.343325
v -0.027077 1.180391 2.281365
v -0.027077 1.180391 1.460722
v 0.107871 1.185723 -0.456393
v 0.107871 1.185668 0.455822
v -0.018186 1.185723 -0.456393
v -0.018186 1.185668 0.455822
v -0.106809 1.180670 1.999372
v -0.027077 1.180391 1.999372
v -0.106809 1.180670 0.822863
v -0.027077 1.180373 0.809294
v 0.117410 1.180391 1.994801
v 0.117410 1.180373 0.796394
v 0.117410 2.455881 0.811738
v 0.117410 2.455880 1.986569
v 0.113522 2.385114 1.454356
v -0.023165 2.385114 1.454356
v 0.113522 2.385114 1.349986
v -0.023165 2.385114 1.349986
v -0.023165 2.385114 0.875218
v 0.113522 2.385110 1.403291
v -0.106350 2.385110 1.933230
v -0.106350 2.385110 1.403291
v -0.023165 2.385114 1.933230
v -0.106350 2.385110 0.887281
v -0.106350 1.251416 1.933230
v -0.023165 1.251168 1.933230
v -0.106350 1.251416 0.887281
v -0.023165 1.251152 0.875218
v -0.106350 1.251416 1.403291
v -0.023165 1.251168 1.454356
v 0.113522 1.251416 1.403291
v 0.113522 1.251152 1.349986
v -0.023165 1.251152 1.349986
v 0.113522 1.251168 1.454356
v 0.115945 1.251168 1.929167
v 0.115946 1.251152 0.863750
v 0.115946 2.385114 0.877390
v 0.115945 2.385114 1.921848
v -0.017639 2.385110 1.403291
v -0.016464 1.251416 1.403291
v -0.106809 -0.018538 1.999372
v -0.106809 -0.018538 2.338804
v -0.106809 2.455876 2.338804
v -0.106809 3.042877 2.338804
v -0.106809 3.042877 -1.403283
v -0.106809 3.042877 -2.338804
v -0.106809 0.047050 -2.338804
v -0.106809 -0.018538 -2.338804
v -0.106809 -0.018538 -1.403283
v -0.106809 -0.018538 -0.496727
v -0.106809 -0.018538 0.822863
v -0.106809 -0.018538 1.403283
v -0.106809 3.042877 1.999372
v -0.106809 3.042877 1.403283
v -0.106809 3.042877 0.822863
v -0.106809 3.042877 0.496156
v -0.106809 3.042877 -0.496728
v -0.106809 2.456080 -2.338804
v -0.106809 -0.018538 0.496157
v -0.106809 1.180670 2.338805
v -0.106809 2.455876 1.999372
v -0.087772 2.492603 1.403283
v -0.106809 1.180787 -2.338804
v -0.106809 0.047010 2.338805
v -0.087772 2.492603 0.786136
v -0.087772 1.143943 2.036098
v -0.087772 1.143943 0.786136
v -0.087772 1.143943 1.403283
vn -1.0000 -0.0000 -0.0000
vn -0.0000 -0.0000 -1.0000
vn 1.0000 -0.0000 -0.0000
vn -0.0000 -0.0000 1.0000
vn -0.0000 -1.0000 -0.0000
vn -0.0000 1.0000 -0.0000
vn 0.9936 -0.1126 -0.0000
vn -0.0011 1.0000 -0.0003
vn 0.9732 -0.0000 0.2302
vn 0.9732 -0.0000 -0.2302
vn 0.9921 0.1258 -0.0000
vn -0.0000 -0.0038 1.0000
vn -0.0000 -0.0038 -1.0000
vn 1.0000 0.0009 -0.0000
vn -0.0011 1.0000 -0.0006
vn -0.9980 -0.0000 0.0633
vn -0.0000 1.0000 0.0006
vn 0.9995 0.0077 -0.0317
vn 0.9998 0.0077 0.0163
vn 0.0600 0.0032 0.9982
vn 0.9993 -0.0366 -0.0024
vn 0.9993 -0.0366 0.0024
vn -1.0000 0.0065 -0.0000
vn 0.9985 -0.0549 -0.0000
vn 0.9998 -0.0003 0.0220
vn 0.9993 0.0366 0.0023
vn 0.9985 0.0549 0.0003
vn -1.0000 -0.0065 -0.0000
vn 0.9993 0.0366 -0.0024
vn -1.0000 -0.0000 0.0071
vn 0.9997 -0.0001 -0.0225
vn 0.9985 0.0549 -0.0003
vn -1.0000 -0.0000 -0.0069
vn -0.0554 -0.0032 -0.9985
vn 0.0334 -0.0060 0.9994
vn -0.0000 -1.0000 0.0001
vn -0.0000 -1.0000 -0.0001
vn -0.0000 1.0000 -0.0050
vn -0.0000 1.0000 0.0049
vn 0.0030 1.0000 -0.0000
vn 0.0032 1.0000 -0.0000
vn 0.1435 -0.0000 0.9896
vn -0.0000 1.0000 -0.0002
vn -0.0362 0.0060 -0.9993
vn -0.8878 0.4602 -0.0000
vn -0.8878 -0.0000 -0.4602
vn -0.8878 -0.4602 -0.0000
vn -0.8878 -0.0000 0.4602
vt 0.809491 0.540899
vt 0.463276 0.540879
vt 0.809102 0.006559
vt 0.464190 0.006698
vt 0.389575 0.036664
vt 0.030441 0.088790
vt 0.433999 0.628282
vt 0.067747 0.680094
vt 0.809850 0.109312
vt 0.810127 0.215044
vt 0.810318 0.330822
vt 0.810343 0.436690
vt 0.460776 0.436983
vt 0.461098 0.330547
vt 0.461629 0.214528
vt 0.462313 0.108885
vt 0.893948 0.000222
vt 0.423151 0.155209
vt 0.411912 0.281988
vt 0.411581 0.418665
vt 0.421986 0.532302
vt 0.056213 0.569869
vt 0.041608 0.442567
vt 0.033742 0.294768
vt 0.922843 0.494741
vt 0.027548 0.181328
vt 0.401700 0.287484
vt 0.402965 0.413973
vt 0.116192 0.297407
vt 0.124388 0.431159
vt 0.079753 0.675048
vt 0.426183 0.624381
vt 0.414183 0.541564
vt 0.070069 0.576926
vt 0.404364 0.424448
vt 0.412220 0.523378
vt 0.070606 0.558881
vt 0.056149 0.447407
vt 0.902421 0.008416
vt 0.414165 0.164056
vt 0.402506 0.276250
vt 0.049102 0.288845
vt 0.040112 0.187863
vt 0.930626 0.476230
vt 0.912162 0.478630
vt 0.039755 0.174678
vt 0.040778 0.090816
vt 0.382810 0.042902
vt 0.412996 0.148222
vt 0.886775 0.009296
vt 0.658412 0.546707
vt 0.091560 0.662657
vt 0.410556 0.611355
vt 0.406051 0.561443
vt 0.752683 0.546707
vt 0.090896 0.591872
vt 0.393573 0.444679
vt 0.394620 0.505837
vt 0.940312 0.882638
vt 0.083930 0.539933
vt 0.078468 0.462881
vt 0.847728 0.882638
vt 0.925369 0.006766
vt 0.395416 0.165089
vt 0.847283 0.882546
vt 0.390944 0.260456
vt 0.060969 0.272124
vt 0.753192 0.546707
vt 0.847250 0.546707
vt 0.056335 0.187234
vt 0.947704 0.475520
vt 0.891610 0.481697
vt 0.562493 0.546707
vt 0.055712 0.173985
vt 0.657968 0.546707
vt 0.053596 0.099057
vt 0.375358 0.058886
vt 0.394222 0.150295
vt 0.562493 0.882588
vt 0.868062 0.009818
vt 0.047309 0.300707
vt 0.053023 0.435520
vt 0.526740 0.005069
vt 0.140110 0.700468
vt 0.134664 0.562499
vt 0.124660 0.435757
vt 0.525852 0.214799
vt 0.526267 0.109248
vt 0.140885 0.692881
vt 0.135329 0.569154
vt 0.134079 0.555445
vt 0.125051 0.440570
vt 0.142847 0.676080
vt 0.658412 0.602290
vt 0.752683 0.602290
vt 0.137555 0.586236
vt 0.133209 0.540944
vt 0.940312 0.827033
vt 0.847728 0.827033
vt 0.127297 0.458213
vt 0.525809 0.541452
vt 0.086757 0.061038
vt 0.115973 0.292790
vt 0.913431 0.398276
vt 0.525217 0.436694
vt 0.525677 0.330745
vt 0.115828 0.288476
vt 0.923568 0.396768
vt 0.088661 0.066890
vt 0.903507 0.398365
vt 0.115827 0.273061
vt 0.753192 0.602227
vt 0.847250 0.602227
vt 0.948224 0.409062
vt 0.657968 0.602273
vt 0.094494 0.083930
vt 0.562493 0.602273
vt 0.881468 0.413760
vt 0.805816 0.006479
vt 0.429329 0.631556
vt 0.414170 0.533113
vt 0.404547 0.418890
vt 0.806761 0.215051
vt 0.806484 0.109328
vt 0.426149 0.624410
vt 0.414144 0.541555
vt 0.412174 0.523409
vt 0.404325 0.424436
vt 0.658412 0.882619
vt 0.410503 0.611374
vt 0.406010 0.561439
vt 0.752683 0.882619
vt 0.940312 0.546707
vt 0.394554 0.505856
vt 0.393527 0.444671
vt 0.847728 0.546707
vt 0.383409 0.035298
vt 0.403245 0.281954
vt 0.894436 0.008959
vt 0.806974 0.436681
vt 0.806960 0.330828
vt 0.402456 0.276272
vt 0.382770 0.042892
vt 0.753128 0.882546
vt 0.390904 0.260467
vt 0.375326 0.058882
vt 0.657968 0.882588
vt 0.806211 0.540952
vt 0.388610 0.302556
vt 0.562048 0.883868
vt 0.455919 0.883864
vt 0.383975 0.399860
vt 0.562048 0.604774
vt 0.116814 0.311210
vt 0.123738 0.417654
vt 0.455919 0.604765
vt 0.062459 0.316107
vt 0.561826 0.546707
vt 0.072695 0.416196
vt 0.456141 0.546707
vt 0.809985 0.506366
vt 0.029647 0.119313
vt 0.461827 0.506762
vt 0.407736 0.075747
vt 0.040029 0.119584
vt 0.399902 0.078283
vt 0.625160 0.546707
vt 0.053867 0.120057
vt 0.381458 0.084494
vt 0.625160 0.882588
vt 0.625160 0.602273
vt 0.818608 0.374631
vt 0.521708 0.510587
vt 0.806622 0.506335
vt 0.810354 0.368835
vt 0.460922 0.368717
vt 0.419951 0.232896
vt 0.028778 0.249631
vt 0.411490 0.233601
vt 0.041608 0.249976
vt 0.396671 0.230937
vt 0.785120 0.882525
vt 0.059411 0.247515
vt 0.785120 0.546707
vt 0.785120 0.602227
vt 0.999778 0.365013
vt 0.526110 0.369400
vt 0.806993 0.368835
vt 0.674012 0.541444
vt 0.674651 0.005017
vt 0.300942 0.688521
vt 0.274024 0.549273
vt 0.267033 0.426839
vt 0.674411 0.215074
vt 0.674471 0.109492
vt 0.299027 0.680834
vt 0.274839 0.556366
vt 0.273169 0.541663
vt 0.267352 0.431804
vt 0.658412 0.750690
vt 0.294725 0.663662
vt 0.276577 0.572461
vt 0.752683 0.750690
vt 0.940312 0.678634
vt 0.271263 0.526101
vt 0.268152 0.447876
vt 0.847728 0.678634
vt 0.244155 0.030064
vt 0.260558 0.283758
vt 0.905054 0.200788
vt 0.674722 0.436663
vt 0.674205 0.330927
vt 0.260423 0.279204
vt 0.915571 0.200878
vt 0.244744 0.037251
vt 0.895117 0.202048
vt 0.753192 0.750623
vt 0.259824 0.262601
vt 0.847250 0.750623
vt 0.938318 0.186862
vt 0.246244 0.055232
vt 0.657968 0.750667
vt 0.562493 0.750667
vt 0.870014 0.188810
vt 0.266263 0.422574
vt 0.260196 0.288189
vt 0.455919 0.752514
vt 0.265300 0.406876
vt 0.562048 0.752521
vt 0.260799 0.301215
vt 0.673605 0.505694
vt 0.625160 0.750667
vt 0.815624 0.234676
vt 0.673607 0.369396
vt 0.785120 0.750623
vt 0.999778 0.226156
vt 0.831080 0.242165
vt 0.981496 0.236541
vt 0.984773 0.357658
vt 0.837278 0.365605
vt 0.905366 0.387847
vt 0.905146 0.369913
vt 0.920349 0.386865
vt 0.918444 0.369025
vt 0.964236 0.343952
vt 0.912724 0.387545
vt 0.534514 0.498009
vt 0.862446 0.344826
vt 0.533456 0.436682
vt 0.911223 0.360163
vt 0.854232 0.350300
vt 0.534238 0.376933
vt 0.955673 0.339705
vt 0.665557 0.498056
vt 0.860914 0.261535
vt 0.853992 0.257040
vt 0.665544 0.376851
vt 0.955278 0.254557
vt 0.962184 0.249656
vt 0.666475 0.436666
vt 0.906796 0.240487
vt 0.899672 0.231219
vt 0.905675 0.211765
vt 0.913636 0.211398
vt 0.913419 0.230829
vt 0.898145 0.212343
vt 0.839450 0.246952
vt 0.973500 0.241639
vt 0.978815 0.353961
vt 0.842822 0.361276
vt 0.911733 0.370365
vt 0.906374 0.229887
vt 0.438856 0.061598
vt 0.814819 0.506419
vt 0.405904 0.011757
vt 0.814095 0.545344
vt 0.073542 0.032040
vt 0.525784 0.546259
vt 0.011401 0.075967
vt 0.458826 0.545505
vt 0.024518 0.573703
vt 0.457500 0.108824
vt 0.040642 0.705758
vt 0.459584 0.002131
vt 0.449011 0.650475
vt 0.805994 0.001648
vt 0.455474 0.642054
vt 0.813758 0.002151
vt 0.452581 0.530385
vt 0.814676 0.109286
vt 0.441051 0.417183
vt 0.814951 0.215034
vt 0.451321 0.236511
vt 0.815180 0.368834
vt 0.455474 0.152672
vt 0.815180 0.436702
vt 0.003358 0.116050
vt 0.457014 0.506905
vt 0.001725 0.181416
vt 0.455919 0.437015
vt 0.000222 0.250961
vt 0.456072 0.368701
vt 0.001715 0.296779
vt 0.456264 0.330523
vt 0.009292 0.445091
vt 0.456801 0.214501
vt 0.135382 0.732772
vt 0.526673 0.000262
vt 0.444261 0.284530
vt 0.815136 0.330816
vt 0.242204 0.000222
vt 0.674021 0.546262
vt 0.526427 0.505738
vt 0.520313 0.436703
vt 0.308910 0.717587
vt 0.674676 0.000222
vt 0.396921 0.007163
vt 0.806349 0.545792
vt 0.521416 0.364681
vt 0.678276 0.510409
vt 0.678342 0.364540
vt 0.679626 0.436660
s 0
usemtl Material.005
f 68/88/1 16/16/1 4/4/1 63/83/1
f 226/307/2 214/283/2 8/8/2 64/84/2
f 105/137/3 5/5/3 43/48/3 111/143/3
f 78/102/4 6/6/4 212/279/4 211/277/4
f 209/273/5 124/164/5 5/5/5 210/275/5
f 122/162/6 221/297/6 212/279/6 6/6/6
f 8/8/6 214/283/6 213/281/6 21/22/6
f 21/22/6 213/281/6 225/305/6 22/23/6
f 135/178/6 223/301/6 222/299/6 24/26/6
f 216/287/5 7/7/5 20/21/5 217/289/5
f 217/289/5 20/21/5 19/20/5 218/291/5
f 219/293/5 134/177/5 17/18/5 220/295/5
f 64/84/3 8/8/3 29/31/3 69/89/3
f 19/20/3 20/21/3 34/36/3 33/35/3
f 135/178/3 24/26/3 40/43/3 137/180/3
f 130/173/1 123/163/1 13/13/1 230/314/1
f 233/319/1 133/176/1 14/14/1 82/106/1
f 67/87/1 15/15/1 16/16/1 68/88/1
f 36/38/2 72/92/2 76/100/2 52/61/2
f 150/196/4 69/89/4 73/93/4 154/201/4
f 23/24/7 61/81/7 62/82/7 22/23/7
f 125/165/5 42/47/5 58/76/5 127/168/5
f 8/8/3 21/22/3 32/34/3 29/31/3
f 20/21/3 7/7/3 30/32/3 31/33/3
f 93/121/3 20/21/3 31/33/3 98/126/3
f 35/37/5 36/38/5 52/61/5 51/60/5
f 94/122/3 19/20/3 33/35/3 100/128/3
f 21/22/3 22/23/3 36/38/3 35/37/3
f 65/85/3 21/22/3 35/37/3 71/91/3
f 136/179/6 38/41/6 54/66/6 138/181/6
f 79/103/3 23/24/3 39/42/3 83/107/3
f 134/177/3 18/19/3 38/41/3 136/179/3
f 107/139/3 17/17/3 37/39/3
f 31/33/6 30/32/6 46/53/6 47/54/6
f 124/164/3 17/18/3 44/49/3 126/166/3
f 122/162/3 6/6/3 42/47/3 125/165/3
f 80/104/3 24/25/3 41/45/3 86/110/3
f 73/94/3 45/51/3 48/55/3 74/95/3
f 75/98/3 51/59/3 52/62/3 76/99/3
f 140/185/3 139/184/3 56/69/3 88/113/3
f 129/171/3 127/167/3 58/75/3 89/115/3
f 29/31/5 32/34/5 48/56/5 45/52/5
f 137/180/5 40/43/5 56/70/5 139/183/5
f 71/91/4 35/37/4 51/60/4 75/97/4
f 111/143/4 43/48/4 59/77/4 113/146/4
f 98/126/4 31/33/4 47/54/4 102/131/4
f 83/107/4 39/42/4 55/67/4 87/111/4
f 100/128/4 33/35/4 49/57/4 104/135/4
f 126/166/8 44/49/8 60/78/8 128/169/8
f 86/110/4 41/45/4 57/72/4 90/118/4
f 69/89/4 29/31/4 45/52/4 73/93/4
f 33/35/6 34/36/6 50/58/6 49/57/6
f 82/106/1 14/14/1 15/15/1 67/87/1
f 218/291/5 19/20/5 18/19/5 227/309/5
f 32/34/2 70/90/2 74/96/2 48/56/2
f 152/198/4 71/91/4 75/97/4 156/205/4
f 156/204/3 75/98/3 76/99/3 157/207/3
f 154/200/3 73/94/3 74/95/3 155/203/3
f 146/192/3 65/85/3 71/91/3 152/198/3
f 22/23/3 66/86/3 72/92/3 36/38/3
f 21/22/3 65/85/3 70/90/3 32/34/3
f 148/194/1 67/87/1 68/88/1 149/195/1
f 145/191/3 64/84/3 69/89/3 150/196/3
f 231/315/2 226/307/2 64/84/2 145/191/2
f 149/195/1 68/88/1 63/83/1 144/190/1
f 40/44/2 84/108/2 88/114/2 56/71/2
f 163/213/4 83/107/4 87/111/4 167/218/4
f 42/47/2 85/109/2 89/116/2 58/76/2
f 176/232/3 129/171/3 89/115/3 169/222/3
f 24/25/3 80/104/3 84/108/3 40/44/3
f 159/209/3 79/103/3 83/107/3 163/213/3
f 235/321/1 233/319/1 82/106/1 162/212/1
f 158/208/4 78/102/4 211/277/4 228/311/4
f 6/6/3 78/102/3 85/109/3 42/47/3
f 9/9/1 96/124/1 91/119/1 3/3/1
f 216/287/2 215/285/2 92/120/2 7/7/2
f 7/7/3 92/120/3 97/125/3 30/32/3
f 10/10/1 95/123/1 96/124/1 9/9/1
f 20/21/3 93/121/3 99/127/3 34/36/3
f 46/53/1 101/130/1 102/131/1 47/54/1
f 50/58/1 103/134/1 104/135/1 49/57/1
f 34/36/2 99/127/2 103/134/2 50/58/2
f 153/199/2 100/128/2 104/135/2 157/206/2
f 151/197/2 98/126/2 102/131/2 155/202/2
f 147/193/3 94/122/3 100/128/3 153/199/3
f 146/192/3 93/121/3 98/126/3 151/197/3
f 30/32/2 97/125/2 101/130/2 46/53/2
f 5/5/4 105/137/4 232/317/4 210/275/4
f 121/161/1 131/174/1 108/140/1 12/12/1
f 132/175/1 142/188/1 109/141/1 11/11/1
f 18/19/3 106/138/3 110/142/3 38/41/3
f 17/17/3 107/139/3 44/50/3
f 128/169/1 113/146/1 59/77/1
f 38/41/2 110/142/2 112/145/2 54/66/2
f 164/214/2 37/39/2 53/63/2 168/220/2
f 165/215/2 111/143/2 113/146/2 169/221/2
f 160/210/3 107/139/3 37/39/3 164/214/3
f 158/208/3 105/137/3 111/143/3 165/215/3
f 147/193/9 66/86/9 28/30/9 171/225/9
f 148/194/1 95/123/1 109/141/1 162/212/1
f 159/209/10 106/138/10 25/27/10 172/226/10
f 11/11/1 109/141/1 95/123/1 10/10/1
f 22/23/6 225/305/6 224/303/6 23/24/6
f 18/19/10 25/27/10 106/138/10
f 94/122/9 26/28/9 19/20/9
f 19/20/11 26/28/11 25/27/11 18/19/11
f 28/30/9 66/86/9 22/23/9 62/82/9
f 23/24/10 79/103/10 27/29/10 61/81/10
f 28/30/12 62/82/12 120/159/12 118/155/12
f 171/225/4 28/30/4 118/155/4 173/228/4
f 27/29/13 117/154/13 119/157/13 61/81/13
f 61/81/5 119/157/5 120/159/5 62/82/5
f 25/27/6 26/28/6 116/152/6 115/149/6
f 172/226/2 25/27/2 115/149/2 174/230/2
f 119/158/14 117/153/14 118/156/14 120/160/14
f 173/227/3 118/156/3 117/153/3 174/229/3
f 1/1/1 114/148/1 131/174/1 121/161/1
f 143/189/1 77/101/1 130/173/1 234/320/1
f 43/48/15 126/166/15 128/169/15 59/77/15
f 90/117/3 57/73/3 127/167/3 129/171/3
f 24/26/3 122/162/3 125/165/3 41/46/3
f 5/5/3 124/164/3 126/166/3 43/48/3
f 41/46/5 125/165/5 127/168/5 57/74/5
f 77/101/1 2/2/1 123/163/1 130/173/1
f 24/26/6 222/299/6 221/297/6 122/162/6
f 220/295/5 17/18/5 124/164/5 209/273/5
f 54/66/16 112/145/16 138/181/16
f 12/12/1 108/140/1 142/188/1 132/175/1
f 167/217/3 87/112/3 140/185/3 178/235/3
f 39/42/5 137/180/5 139/183/5 55/67/5
f 87/112/3 55/68/3 139/184/3 140/185/3
f 17/18/3 134/177/3 136/179/3 37/40/3
f 37/40/17 136/179/17 138/181/17 53/64/17
f 230/314/1 13/13/1 133/176/1 233/319/1
f 23/24/3 135/178/3 137/180/3 39/42/3
f 227/309/5 18/19/5 134/177/5 219/293/5
f 23/24/6 224/303/6 223/301/6 135/178/6
f 112/144/18 167/217/18 178/235/18 138/182/18
f 108/140/1 236/322/1 235/321/1 142/188/1
f 60/79/3 170/223/3 176/232/3 128/170/3
f 114/148/1 143/189/1 234/320/1 131/174/1
f 116/151/3 173/227/3 174/229/3 115/150/3
f 27/29/2 172/226/2 174/230/2 117/154/2
f 26/28/4 171/225/4 173/228/4 116/152/4
f 79/103/10 159/209/10 172/226/10 27/29/10
f 67/87/1 148/194/1 162/212/1 82/106/1
f 94/122/9 147/193/9 171/225/9 26/28/9
f 78/102/3 158/208/3 165/215/3 85/109/3
f 85/109/2 165/215/2 169/221/2 89/116/2
f 65/85/3 146/192/3 151/197/3 70/90/3
f 66/86/3 147/193/3 153/199/3 72/92/3
f 70/90/2 151/197/2 155/202/2 74/96/2
f 72/92/2 153/199/2 157/206/2 76/100/2
f 105/137/4 158/208/4 228/311/4 232/317/4
f 131/174/1 234/320/1 236/322/1 108/140/1
f 142/188/1 235/321/1 162/212/1 109/141/1
f 106/138/3 159/209/3 163/213/3 110/142/3
f 107/139/3 160/210/3 166/216/3 44/50/3
f 138/182/19 178/235/19 168/219/19 53/65/19
f 128/170/3 176/232/3 169/222/3 113/147/3
f 110/142/4 163/213/4 167/218/4 112/145/4
f 44/50/4 166/216/4 170/224/4 60/80/4
f 96/124/1 149/195/1 144/190/1 91/119/1
f 215/285/2 231/315/2 145/191/2 92/120/2
f 92/120/3 145/191/3 150/196/3 97/125/3
f 95/123/1 148/194/1 149/195/1 96/124/1
f 93/121/3 146/192/3 152/198/3 99/127/3
f 101/129/3 154/200/3 155/203/3 102/132/3
f 103/133/3 156/204/3 157/207/3 104/136/3
f 99/127/4 152/198/4 156/205/4 103/134/4
f 97/125/4 150/196/4 154/201/4 101/130/4
f 176/233/20 179/237/20 182/240/20 129/172/20
f 86/110/6 90/118/6 129/172/6 182/240/6
f 182/240/21 206/270/21 183/241/21 86/110/21
f 84/108/22 185/243/22 205/269/22 181/239/22
f 177/234/23 161/211/23 197/260/23 195/257/23
f 84/108/24 80/104/24 188/246/24 185/243/24
f 181/239/25 205/269/25 204/268/25 180/238/25
f 180/238/26 204/268/26 200/264/26 164/214/26
f 80/104/24 86/110/24 183/241/24 188/246/24
f 166/216/27 160/210/27 199/263/27 202/266/27
f 81/105/28 141/187/28 192/252/28 190/249/28
f 166/216/29 202/266/29 203/267/29 179/237/29
f 141/187/30 177/234/30 195/257/30 192/252/30
f 161/211/23 175/231/23 193/254/23 197/260/23
f 179/237/31 203/267/31 206/270/31 182/240/31
f 229/313/28 81/105/28 190/249/28 189/247/28
f 160/210/32 164/214/32 200/264/32 199/263/32
f 175/231/33 229/313/33 189/247/33 193/254/33
f 194/256/6 203/267/6 202/266/6 198/262/6
f 204/268/6 196/259/6 201/265/6 200/264/6
f 205/269/5 185/243/5 186/244/5 187/245/5
f 194/256/34 191/251/34 206/270/34 203/267/34
f 187/245/35 196/259/35 204/268/35 205/269/35
f 183/241/5 206/270/5 191/251/5 184/242/5
f 188/246/36 183/241/36 184/242/36 207/271/36
f 185/243/37 188/246/37 207/271/37 186/244/37
f 208/272/38 199/263/38 200/264/38 201/265/38
f 199/263/39 208/272/39 198/262/39 202/266/39
f 191/251/2 194/256/2 193/255/2 189/248/2
f 191/251/5 189/248/5 190/250/5 184/242/5
f 198/262/40 197/261/40 193/255/40 194/256/40
f 195/258/41 197/261/41 201/265/41 196/259/41
f 187/245/42 192/253/42 195/258/42 196/259/42
f 192/253/5 187/245/5 186/244/5 190/250/5
f 184/242/5 190/250/5 186/244/5 207/271/5
f 201/265/43 197/261/43 198/262/43 208/272/43
f 176/233/5 170/224/5 166/216/5 179/237/5
f 164/214/5 168/220/5 178/236/5 180/238/5
f 140/186/44 181/239/44 180/238/44 178/236/44
f 84/108/6 181/239/6 140/186/6 88/114/6
f 1/1/45 121/161/45 209/274/45 210/276/45
f 2/2/46 77/101/46 211/278/46 212/280/46
f 4/4/47 16/16/47 213/282/47 214/284/47
f 3/3/48 91/119/48 215/286/48 216/288/48
f 9/9/45 3/3/45 216/288/45 217/290/45
f 10/10/45 9/9/45 217/290/45 218/292/45
f 12/12/45 132/175/45 219/294/45 220/296/45
f 13/13/47 123/163/47 221/298/47 222/300/47
f 14/14/47 133/176/47 223/302/47 224/304/47
f 16/16/47 15/15/47 225/306/47 213/282/47
f 63/83/48 4/4/48 214/284/48 226/308/48
f 15/15/47 14/14/47 224/304/47 225/306/47
f 11/11/45 10/10/45 218/292/45 227/310/45
f 77/101/46 143/189/46 228/312/46 211/278/46
f 130/173/45 230/314/45 81/105/45 229/313/45
f 91/119/48 144/190/48 231/316/48 215/286/48
f 114/148/46 1/1/46 210/276/46 232/318/46
f 121/161/45 12/12/45 220/296/45 209/274/45
f 123/163/47 2/2/47 212/280/47 221/298/47
f 132/175/45 11/11/45 227/310/45 219/294/45
f 133/176/47 13/13/47 222/300/47 223/302/47
f 230/314/45 233/319/45 141/187/45 81/105/45
f 143/189/46 114/148/46 232/318/46 228/312/46
f 144/190/48 63/83/48 226/308/48 231/316/48
f 234/320/48 130/173/48 229/313/48 175/231/48
f 233/319/46 235/321/46 177/234/46 141/187/46
f 235/321/47 236/322/47 161/211/47 177/234/47
f 236/322/47 234/320/47 175/231/47 161/211/47
